<?xml version="1.0" encoding="UTF-8"?>
<svg fill="#009491" width="100pt" height="100pt" version="1.1" viewBox="0 0 100 100" xmlns="http://www.w3.org/2000/svg">
 <path d="m98.352 75.516-14.723-5.8906c0.46875-2.2734 0.16797-4.7031-0.85547-6.7852-0.51953-1.0469-1.1953-1.9688-1.8438-2.8594-0.14063-0.19531-0.28906-0.39062-0.42969-0.58984-3.0117-4.2031-5.2734-8.6758-7.0898-14.031 0.14844-0.19531 0.29297-0.39453 0.42578-0.60156 1.0742-1.6797 1.3906-3.5547 0.875-5.1641 0.5-0.48047 0.96094-1.0312 1.168-1.7852 0.36328-1.3125-0.21875-2.8047-1.4844-3.793-0.17969-0.14062-0.36719-0.26562-0.55469-0.375 0.38281-0.46875 0.71094-0.98828 0.9375-1.5781 0.54297-1.4219 0.34375-3.4102-1.0859-4.4609-0.61328-0.45312-1.2891-0.63281-1.9492-0.65625 0.65625-0.60937 1.2734-1.293 1.6953-2.1562 0.71094-1.4609 0.60547-3.1289-0.27734-4.2422-0.69531-0.875-1.8359-1.3711-3.0898-1.3711-0.28125-3.7656-0.30859-11.504-0.027343-14.469 0.0625-0.64453-0.41406-1.2188-1.0547-1.2773-0.64844-0.0625-1.2188 0.41406-1.2773 1.0547-0.30469 3.2109-0.26563 11.414 0.050781 15.215-0.57812 0.24219-1.1016 0.53125-1.5664 0.78906-4.1953 2.3242-8.4062 4.7266-12.523 7.1406-0.39062-1.3945-0.59766-2.8359-0.82031-4.3516l-2.3984-16.648c-0.09375-0.64062-0.6875-1.0859-1.3281-0.99219s-1.0859 0.6875-0.99219 1.3281l2.2617 15.691c-2.2031 0.73047-4.1602 2.207-5.4453 4.1367-0.64844 0.97266-1.1094 2.0156-1.5547 3.0273-0.097656 0.22266-0.19531 0.44531-0.29688 0.66797-2.3125 5.1055-5.8008 9.2734-9.207 13.098-0.046875 0-0.089844-0.007813-0.13281-0.007813-1.9922-0.085937-3.7734 0.57812-4.9102 1.8281-0.65234-0.1875-1.375-0.3125-2.1328-0.11719-1.3203 0.34375-2.3203 1.5938-2.5391 3.1797-0.03125 0.22656-0.046875 0.44922-0.046875 0.66406-0.59375-0.097656-1.207-0.12109-1.8359-0.023437-1.5 0.24219-3.125 1.4062-3.3164 3.1719-0.085937 0.75391 0.10156 1.4297 0.41406 2.0234-0.85938-0.26563-1.7695-0.46094-2.7266-0.39453-1.625 0.10938-3.0156 1.0391-3.5391 2.3594-0.41406 1.0391-0.26562 2.2773 0.35938 3.3594-3.0547 2.0898-9.1445 5.6328-11.906 6.8984-0.58594 0.26953-0.84766 0.96484-0.57812 1.5547 0.19531 0.42969 0.62109 0.68359 1.0664 0.68359 0.16406 0 0.32812-0.035156 0.48828-0.10938 2.9258-1.3359 9.4766-5.1641 12.539-7.2891 0.49609 0.375 1.0117 0.6875 1.4688 0.96094 4.0391 2.4297 8.2266 4.875 12.453 7.2734-1.0156 1.0352-2.1602 1.9375-3.375 2.8984l-4.0391 3.1758c-3.0547 2.4062-6.1094 4.8086-9.168 7.2148-0.50781 0.39844-0.59375 1.1367-0.19531 1.6484 0.23047 0.29297 0.57422 0.44531 0.92188 0.44531 0.25391 0 0.50781-0.082031 0.72656-0.25 3.0547-2.4062 6.1094-4.8125 9.1641-7.2148l3.2969-2.5938c1.7305 1.5391 3.9922 2.5 6.3047 2.6484 1.1797 0.078125 2.3203-0.046875 3.4219-0.16406 0.23438-0.023437 0.46875-0.050781 0.70312-0.074218 4.7617-0.46875 9.5156-0.11719 15.82 1.1641 0.058594 0.12891 0.11719 0.25781 0.18359 0.38281 0.91797 1.7656 2.3828 2.9766 4.0352 3.3359 0.14453 0.58984 0.39844 1.3281 0.96094 1.9023 0.60547 0.61719 1.4609 0.9375 2.3906 0.9375 0.53516 0 1.0938-0.10938 1.6406-0.32812 0.21094-0.085938 0.41406-0.18359 0.59766-0.29297 0.21484 0.5625 0.49609 1.1055 0.90234 1.6016 0.71094 0.875 1.8984 1.5547 3.1289 1.5547 0.42969 0 0.85938-0.082031 1.2812-0.26562 0.69531-0.30469 1.1875-0.80859 1.543-1.375 0.19922 0.87891 0.48438 1.7617 1.0234 2.5625 0.8125 1.1953 2.082 1.9141 3.3359 1.9141 0.15625 0 0.31641-0.011719 0.47266-0.035157 1.1094-0.16406 2.1055-0.90625 2.7305-1.9883 3.6562 1.7852 12.152 6.6328 14.59 8.3672 0.20703 0.14844 0.44531 0.21875 0.67969 0.21875 0.36719 0 0.72656-0.17188 0.95312-0.49219 0.375-0.52734 0.25-1.2578-0.27344-1.6328-2.6328-1.875-11.605-6.9922-15.242-8.7227 0.078125-0.62109 0.089844-1.2227 0.10156-1.7539 0.085938-4.8281 0.10938-9.6758 0.078126-14.418 1.418 0.36719 2.8281 0.92969 4.1953 1.4766l15.598 6.2383c0.60156 0.24219 1.2812-0.050781 1.5234-0.65234 0.24219-0.60156-0.050782-1.2812-0.65234-1.5234zm-53.129-44.062c0.10156-0.22656 0.20312-0.45703 0.30469-0.6875 0.42188-0.96094 0.82812-1.8672 1.3633-2.6719 0.92578-1.3828 2.2891-2.4688 3.8438-3.0742 0.17969 1.1602 0.40234 2.3359 0.74219 3.4883-0.33594 0.078126-0.67969 0.14063-1.0312 0.1875-0.64062 0.078126-1.1016 0.66016-1.0234 1.3047 0.070313 0.59375 0.57812 1.0312 1.1641 1.0312 0.046874 0 0.09375 0 0.14062-0.007812 1.0742-0.12891 2.1211-0.40625 3.1094-0.82813 0.046874-0.019531 0.085937-0.039062 0.12891-0.0625 0.19922-0.070312 0.35547-0.16406 0.46094-0.22266 4.2344-2.4922 8.5781-4.9688 12.898-7.3633 0.77344-0.42969 1.5664-0.86719 2.3672-0.99219 0.5625-0.085938 1.2812 0.023437 1.625 0.45312 0.31641 0.39844 0.32031 1.1211 0.007813 1.7578-0.36719 0.75-1.0469 1.3672-1.7773 1.9922-1.2656 1.082-2.5859 2.1172-3.918 3.0703-0.0625 0.039063-0.125 0.078125-0.17969 0.125-1.0703 0.76562-2.1797 1.5-3.3047 2.1953-0.55078 0.33984-0.72266 1.0625-0.38281 1.6094 0.21875 0.35938 0.60547 0.55859 1 0.55859 0.21094 0 0.42188-0.054687 0.61328-0.17188 1.1641-0.71875 2.3125-1.4805 3.4219-2.2734 0.63281-0.25 1.2734-0.49609 1.9062-0.74219l0.84766-0.32812c0.96094-0.375 2.1367-0.74219 2.7383-0.30078 0.40625 0.30078 0.53906 1.0781 0.28906 1.7344-0.3125 0.82031-1.0469 1.5039-1.7969 2.125-1.7148 1.4219-3.6523 2.6719-5.5234 3.8828l-0.03125 0.023437c-0.54297 0.35156-0.69922 1.0781-0.34766 1.6211 0.22266 0.34766 0.60156 0.53906 0.98438 0.53906 0.21875 0 0.4375-0.0625 0.63281-0.1875l0.03125-0.023437c1.7461-1.1289 3.5508-2.2969 5.2266-3.6289 0.09375 0 0.1875-0.015626 0.28125-0.039063 0.21094-0.058594 0.57031 0.074219 0.89844 0.33203 0.42188 0.33203 0.78906 0.89062 0.67188 1.3203-0.085938 0.32031-0.44531 0.65234-0.83594 0.99609-1.8828 1.6641-3.9102 3.207-6.0195 4.5859-0.53906 0.35547-0.69531 1.082-0.33594 1.625 0.22266 0.34375 0.60156 0.53125 0.98047 0.53125 0.21875 0 0.44531-0.0625 0.64062-0.19141 1.5664-1.0273 3.0938-2.1406 4.5469-3.3281-0.046875 0.67969-0.29688 1.4102-0.73438 2.0938-0.67969 1.0703-1.6875 1.9297-2.832 2.8711-2.125 1.7422-4.6719 3.7344-7.4141 5.2891-2.6172 1.4805-5.1914 2.4297-7.6602 2.8281-1.7617-2.168-4.0898-4.1133-6.9297-5.7891-2.8594-1.6875-5.9766-2.9453-8.6484-3.9531-0.60938-0.22656-1.2109-0.44531-1.8203-0.63281 3.2266-3.6797 6.4375-7.7148 8.6719-12.648zm-8.6914 43.551c-0.24219 0.023438-0.48438 0.050782-0.72656 0.078125-1.0508 0.11328-2.0469 0.22266-3.0195 0.15625-1.6641-0.10938-3.2852-0.75-4.5859-1.793 0.91406-0.73437 1.8203-1.5156 2.6484-2.3828 0.23828 0.25 0.46875 0.51562 0.67578 0.79297 0.23047 0.30859 0.58203 0.46875 0.9375 0.46875 0.24219 0 0.48828-0.078125 0.70312-0.23438 0.51563-0.38672 0.625-1.1211 0.23438-1.6406-0.64453-0.85938-1.4062-1.625-2.2734-2.2773-0.035156-0.027344-0.070312-0.050781-0.10938-0.070313-0.16797-0.14062-0.32812-0.23437-0.4375-0.29297-4.3438-2.4648-8.6602-4.9844-12.828-7.4883-0.75781-0.45312-1.5391-0.92578-2.0391-1.5547-0.42969-0.53125-0.59375-1.1914-0.42188-1.6328 0.1875-0.47266 0.8125-0.83594 1.5195-0.88281 0.82812-0.058594 1.707 0.22266 2.6133 0.54297 1.5742 0.55469 3.1328 1.1875 4.6328 1.8672 0.050781 0.027344 0.10156 0.050782 0.15625 0.070313 1.2031 0.54688 2.4062 1.1406 3.5781 1.7773 0.57031 0.30859 1.2812 0.09375 1.5898-0.47656s0.09375-1.2812-0.47656-1.5898c-1.2109-0.65625-2.4531-1.2695-3.6875-1.832l-2.3047-1.8516c-0.80078-0.64062-1.7109-1.4766-1.6289-2.2227 0.054688-0.50391 0.66406-1.0078 1.3594-1.1172 0.86328-0.13672 1.8281 0.15625 2.7383 0.49219 2.1172 0.78125 4.1719 1.8359 6.1562 2.8594 0.57812 0.29688 1.2812 0.070313 1.5781-0.50781s0.070313-1.2812-0.50781-1.5781c-1.8594-0.95312-3.7773-1.9375-5.7969-2.7344-0.046875-0.078125-0.10547-0.15625-0.17578-0.22266-0.15625-0.14844-0.21875-0.53125-0.16016-0.94141 0.085938-0.60938 0.43359-1.1445 0.80859-1.2422 0.32422-0.085938 0.8125 0.0625 1.2812 0.22266 2.3828 0.80469 4.7344 1.7891 6.9844 2.9219 0.57812 0.28906 1.2812 0.058594 1.5742-0.51953 0.28906-0.57812 0.058594-1.2812-0.51953-1.5742-1.6719-0.84375-3.3984-1.6055-5.1562-2.2773 0.61328-0.29688 1.375-0.44531 2.1797-0.41016 1.2656 0.054688 2.5156 0.49219 3.9023 1.0156 2.7109 1.0234 5.5859 2.1875 8.2852 3.7812 2.5898 1.5234 4.6953 3.2812 6.2812 5.2188-0.99609 2.6094-1.5156 5.5938-1.5469 8.8984-0.03125 3.3281 0.4375 6.6523 0.90234 9.4648 0.09375 0.55859 0.1875 1.1094 0.30469 1.6562-4.4102-0.84375-9.5547-1.5039-15.238-0.94531zm37.203 13.078c-0.50391 0.074219-1.1328-0.28516-1.5273-0.875-0.46094-0.6875-0.66016-1.5938-0.83594-2.5352-0.30078-1.6133-0.53516-3.2734-0.69922-4.9297 0-0.070313-0.007813-0.14063-0.019531-0.20703-0.125-1.2734-0.21094-2.6094-0.25-3.9648-0.019532-0.64844-0.55469-1.1562-1.2031-1.1367-0.64844 0.019531-1.1562 0.55859-1.1367 1.2031 0.039062 1.4062 0.12891 2.7812 0.25781 4.1055l-0.44922 2.9219c-0.15625 1.0156-0.42188 2.2188-1.1094 2.5234-0.46484 0.20312-1.2031-0.074219-1.6484-0.62109-0.54688-0.67969-0.77734-1.6562-0.9375-2.6172-0.37891-2.2227-0.49219-4.5312-0.60156-6.7617-0.03125-0.64844-0.58203-1.1445-1.2266-1.1133-0.64844 0.03125-1.1445 0.58203-1.1133 1.2266 0.10156 2.0859 0.21094 4.2344 0.53125 6.3828-0.046875 0.082031-0.082031 0.17188-0.10547 0.26562-0.054687 0.21094-0.35156 0.45312-0.73438 0.60938-0.5 0.20312-1.1719 0.23828-1.4844-0.078125-0.23438-0.23828-0.34766-0.73438-0.44531-1.2266-0.49609-2.4727-0.82031-5-0.96094-7.5078-0.039062-0.64844-0.58594-1.1406-1.2344-1.1016-0.64844 0.039063-1.1406 0.58984-1.1016 1.2344 0.10547 1.8672 0.30859 3.7461 0.60547 5.6016-0.56641-0.38281-1.0703-0.96484-1.4453-1.6836-0.58594-1.125-0.82812-2.4258-1.0703-3.8906-0.44531-2.7188-0.89844-5.918-0.87109-9.0625 0.03125-3.0078 0.49219-5.7109 1.3828-8.0469 2.7578-0.4375 5.6016-1.4844 8.4766-3.1094 2.9023-1.6406 5.5469-3.707 7.75-5.5156 0.36719-0.30078 0.72656-0.60156 1.0781-0.91406 1.8242 5.0742 4.0703 9.3984 7.0039 13.488 0.14453 0.20312 0.29297 0.40234 0.4375 0.60938 0.61719 0.84766 1.2031 1.6484 1.6328 2.5156 0.73437 1.4922 0.99219 3.2188 0.73828 4.8672-1.0938-0.42188-2.2188-0.82031-3.3906-1.1016 0.10156-0.33203 0.21875-0.66016 0.35156-0.98047 0.25781-0.59375-0.019531-1.2812-0.61328-1.5391-0.59375-0.25781-1.2812 0.019531-1.5391 0.61328-0.42578 0.99219-0.70703 2.0391-0.83594 3.1094-0.007813 0.046875-0.007813 0.09375-0.007813 0.14062-0.039062 0.21094-0.039062 0.39453-0.035156 0.51562 0.039063 4.875 0.015625 9.875-0.070312 14.852-0.015625 0.88281-0.03125 1.7891-0.32812 2.5469-0.20312 0.52734-0.65625 1.0977-1.207 1.1797z"/>
</svg>
