<?xml version="1.0" encoding="UTF-8" standalone="no"?>
<!-- Created with Inkscape (http://www.inkscape.org/) -->

<svg
   width="116.594"
   height="133.32726"
   viewBox="0 0 30.848829 35.276169"
   version="1.1"
   id="svg1"
   xml:space="preserve"
   xmlns="http://www.w3.org/2000/svg"
   xmlns:svg="http://www.w3.org/2000/svg"><defs
     id="defs1" /><g
     id="layer1"><path
       d="M 19.610843,10.984805 20.875869,10.444632 20.659517,9.9154652 19.380698,10.461177 Z"
       id="path1"
       style="fill:#009491;fill-opacity:1;stroke-width:0.352778" /><path
       d="M 30.308476,9.2057469 30.836267,8.9866401 C 30.618536,8.4492185 30.071445,8.1184893 29.590538,8.0275079 l -0.150206,0.5512153 c 0.417548,0.081305 0.738646,0.3141944 0.868151,0.6269919 z"
       id="path2"
       style="fill:#009491;fill-opacity:1;stroke-width:0.352778" /><path
       d="M 27.468615,8.5220635 27.405224,7.954303 c -0.4699,0.052366 -0.934296,0.1295365 -1.390438,0.2342656 l 0.118512,0.5594703 c 0.442348,-0.101974 0.888824,-0.1750096 1.335334,-0.2259965 z"
       id="path3"
       style="fill:#009491;fill-opacity:1;stroke-width:0.352778" /><path
       d="M 24.140509,9.2717163 23.97239,8.7246285 c -0.446476,0.1322917 -0.888824,0.276987 -1.324293,0.4368447 l 0.188793,0.5387975 c 0.431341,-0.1557196 0.865399,-0.2976562 1.303619,-0.4285544 z"
       id="path4"
       style="fill:#009491;fill-opacity:1;stroke-width:0.352778" /><path
       d="m 24.163793,16.742138 0.347264,0.454766 c 0.37345,-0.275607 0.727604,-0.576015 1.092799,-0.862647 L 25.242823,15.890533 C 24.883167,16.17441 24.53314,16.4693 24.163817,16.742174 Z"
       id="path5"
       style="fill:#009491;fill-opacity:1;stroke-width:0.352778" /><path
       d="m 26.819504,14.535866 0.385868,0.423051 c 0.341754,-0.316949 0.687635,-0.628367 1.008733,-0.966011 l -0.40513,-0.402378 c -0.314191,0.329349 -0.654579,0.635282 -0.989436,0.945338 z"
       id="path6"
       style="fill:#009491;fill-opacity:1;stroke-width:0.352778" /><path
       d="m 30.435476,11.239511 -0.497487,-0.281122 c -0.237025,0.376202 -0.472652,0.752405 -0.762071,1.102431 l 0.450603,0.351398 c 0.299036,-0.362409 0.553967,-0.767574 0.80892,-1.172704 z"
       id="path7"
       style="fill:#009491;fill-opacity:1;stroke-width:0.352778" /><path
       d="m 5.8345181,26.283719 0.1460712,0.552591 c 0.4547658,-0.110243 0.895738,-0.256314 1.3422135,-0.392748 L 7.1491692,25.89785 c -0.4368448,0.135047 -0.8723136,0.279743 -1.3146617,0.385869 z"
       id="path8"
       style="fill:#009491;fill-opacity:1;stroke-width:0.352778" /><path
       d="m 9.1090014,25.210216 0.2039478,0.53467 C 9.7442906,25.572632 10.1811,25.414157 10.605562,25.228137 l -0.219106,-0.527791 c -0.4202999,0.184658 -0.8516413,0.338999 -1.2774441,0.50987 z"
       id="path9"
       style="fill:#009491;fill-opacity:1;stroke-width:0.352778" /><path
       d="m 1.1148807,23.144349 0.4602692,0.338999 C 1.8438677,23.122315 2.1263651,22.770913 2.4364215,22.437432 L 2.0106187,22.055727 c -0.3183255,0.343132 -0.6146094,0.709683 -0.895738,1.088636 z"
       id="path10"
       style="fill:#009491;fill-opacity:1;stroke-width:0.352778" /><path
       d="M 0.64635655,25.221152 0.09238962,25.081971 c -0.15434028,0.46302 -0.14056078,1.107934 0.23702432,1.554409 L 0.77588949,26.279475 C 0.55264819,26.019026 0.51819591,25.622144 0.64635302,25.221141 Z"
       id="path11"
       style="fill:#009491;fill-opacity:1;stroke-width:0.352778" /><path
       d="m 2.4669015,26.818177 -0.00551,0.570512 c 0.4781903,-0.01653 0.9563452,-0.03583 1.4207419,-0.114377 L 3.80358,26.707927 c -0.4478514,0.07717 -0.8915753,0.0937 -1.3367102,0.110243 z"
       id="path12"
       style="fill:#009491;fill-opacity:1;stroke-width:0.352778" /><path
       d="m 3.5139459,20.537322 0.3899959,0.418923 C 4.2360503,20.642054 4.5750309,20.336132 4.9278087,20.042621 L 4.5543581,19.608528 c -0.3555294,0.297657 -0.701428,0.609106 -1.0404122,0.928794 z"
       id="path13"
       style="fill:#009491;fill-opacity:1;stroke-width:0.352778" /><path
       d="m 11.948862,9.3669663 -0.566384,-0.07717 -0.16812,1.3808077 0.569136,0.06339 z"
       id="path14"
       style="fill:#009491;fill-opacity:1;stroke-width:0.352778" /><path
       d="m 15.592704,0.57909565 0.07442,-0.56638471 c -0.57464,-0.07992533 -1.135521,0.22875522 -1.452457,0.59806416 l 0.402379,0.4065058 C 14.894028,0.69619671 15.25645,0.53496315 15.592683,0.57906037 Z"
       id="path15"
       style="fill:#009491;fill-opacity:1;stroke-width:0.352778" /><path
       d="M 13.58046,2.6971381 13.056796,2.4683829 c -0.188792,0.434093 -0.354153,0.8736894 -0.493324,1.3215408 l 0.54296,0.1777682 C 13.241479,3.5322231 13.401333,3.109172 13.580495,2.6971275 Z"
       id="path16"
       style="fill:#009491;fill-opacity:1;stroke-width:0.352778" /><path
       d="M 12.566224,5.9548997 12.008129,5.8253632 11.724252,7.1923771 12.28651,7.2971098 Z"
       id="path17"
       style="fill:#009491;fill-opacity:1;stroke-width:0.352778" /><path
       d="m 19.047457,9.6685913 0.566384,-0.073036 -0.199816,-1.3780205 -0.565009,0.09095 z"
       id="path18"
       style="fill:#009491;fill-opacity:1;stroke-width:0.352778" /><path
       d="m 19.022409,6.1436358 c -0.103353,-0.45339 -0.199816,-0.9094964 -0.332108,-1.357383 l -0.551215,0.1502057 c 0.129536,0.4368447 0.223241,0.8846961 0.325218,1.3297958 z"
       id="path19"
       style="fill:#009491;fill-opacity:1;stroke-width:0.352778" /><path
       d="M 18.027576,2.7743259 C 17.863591,2.3333537 17.640332,1.9103026 17.417094,1.4872515 L 16.925146,1.778018 c 0.206706,0.3941233 0.416172,0.7854949 0.573264,1.2112977 z"
       id="path20"
       style="fill:#009491;fill-opacity:1;stroke-width:0.352778" /><path
       d="m 18.146109,30.313146 0.551216,0.150206 c 0.132291,-0.447851 0.227376,-0.903993 0.330729,-1.358759 l -0.558095,-0.122646 c -0.101973,0.446475 -0.195682,0.894362 -0.323839,1.331171 z"
       id="path21"
       style="fill:#009491;fill-opacity:1;stroke-width:0.352778" /><path
       d="m 18.853076,26.940944 0.565009,0.09095 0.199817,-1.37802 -0.567761,-0.07442 z"
       id="path22"
       style="fill:#009491;fill-opacity:1;stroke-width:0.352778" /><path
       d="m 12.571868,31.510474 c 0.137806,0.447852 0.307301,0.886072 0.4947,1.320165 l 0.523664,-0.230131 c -0.179145,-0.41342 -0.341754,-0.83372 -0.475439,-1.269189 z"
       id="path23"
       style="fill:#009491;fill-opacity:1;stroke-width:0.352778" /><path
       d="m 14.63209,34.274841 -0.399627,0.409293 c 0.325219,0.365195 0.8902,0.675251 1.46484,0.571888 l -0.08681,-0.565009 c -0.33624,0.06339 -0.695925,-0.104733 -0.978394,-0.416172 z"
       id="path24"
       style="fill:#009491;fill-opacity:1;stroke-width:0.352778" /><path
       d="m 16.925146,33.49626 0.491948,0.290767 c 0.224621,-0.423051 0.447852,-0.846103 0.610482,-1.287075 l -0.530542,-0.214975 c -0.15572,0.425802 -0.365196,0.81855 -0.571888,1.211297 z"
       id="path25"
       style="fill:#009491;fill-opacity:1;stroke-width:0.352778" /><path
       d="m 11.786585,24.566749 -0.567761,0.06201 0.16812,1.380807 0.566385,-0.07717 z"
       id="path26"
       style="fill:#009491;fill-opacity:1;stroke-width:0.352778" /><path
       d="m 11.725907,28.083238 c 0.07993,0.457518 0.175009,0.913624 0.283877,1.365638 l 0.556718,-0.128157 c -0.106108,-0.4451 -0.201192,-0.891575 -0.278363,-1.343589 z"
       id="path27"
       style="fill:#009491;fill-opacity:1;stroke-width:0.352778" /><path
       d="m 6.5527736,16.560105 -0.3513984,0.451979 0.8337197,0.62424 -0.8530166,0.642162 0.3500226,0.451978 1.0996788,-0.82684 -0.1791441,-0.243914 0.1998169,-0.274228 z"
       id="path28"
       style="fill:#009491;fill-opacity:1;stroke-width:0.352778" /><path
       d="M 0.65323571,10.074991 C 0.51543366,9.6739888 0.55677216,9.2784896 0.76209941,9.0097788 L 0.30870942,8.6625114 C -0.04819585,9.1200289 -0.06061363,9.7594386 0.10062698,10.219708 Z"
       id="path29"
       style="fill:#009491;fill-opacity:1;stroke-width:0.352778" /><path
       d="m 1.131426,12.150383 c 0.2811215,0.38033 0.580143,0.744149 0.8984897,1.087261 L 2.4557185,12.855938 C 2.1456585,12.522454 1.860406,12.172432 1.593071,11.811399 Z"
       id="path30"
       style="fill:#009491;fill-opacity:1;stroke-width:0.352778" /><path
       d="m 3.515357,14.73695 c 0.3389983,0.319704 0.6848828,0.631154 1.0417881,0.928793 L 4.9292198,15.23165 C 4.5778214,14.938128 4.2374579,14.63221 3.9053529,14.318026 Z"
       id="path31"
       style="fill:#009491;fill-opacity:1;stroke-width:0.352778" /><path
       d="M 10.581849,10.035127 9.2878597,9.5197543 9.0852876,10.054424 10.362731,10.562918 Z"
       id="path32"
       style="fill:#009491;fill-opacity:1;stroke-width:0.352778" /><path
       d="M 7.2981931,8.8226302 C 6.8530934,8.6848281 6.4107453,8.5415086 5.9559795,8.4312585 L 5.8112842,8.9838496 c 0.442348,0.1061085 0.8778169,0.2480451 1.3146616,0.3830814 z"
       id="path33"
       style="fill:#009491;fill-opacity:1;stroke-width:0.352778" /><path
       d="M 3.8035765,8.5647496 3.882126,7.9983649 C 3.4177293,7.9198154 2.9395391,7.9019014 2.4613841,7.8839873 l 0.00551,0.5718881 c 0.4450997,0.017914 0.8888236,0.033073 1.3367102,0.1088637 z"
       id="path34"
       style="fill:#009491;fill-opacity:1;stroke-width:0.352778" /><path
       d="m 26.800101,20.719002 c 0.334864,0.311436 0.676628,0.61461 0.990812,0.946715 l 0.40513,-0.402379 c -0.32246,-0.340374 -0.669714,-0.64904 -1.010109,-0.966011 z"
       id="path35"
       style="fill:#009491;fill-opacity:1;stroke-width:0.352778" /><path
       d="m 24.143332,18.515552 c 0.370698,0.271473 0.719349,0.567761 1.080382,0.851641 l 0.361032,-0.443724 c -0.365195,-0.286632 -0.719349,-0.587057 -1.092799,-0.861272 z"
       id="path36"
       style="fill:#009491;fill-opacity:1;stroke-width:0.352778" /><path
       d="m 26.040923,27.091227 c 0.456142,0.104733 0.920539,0.177768 1.390439,0.23289 l 0.06339,-0.569137 c -0.446475,-0.05099 -0.892951,-0.121267 -1.33671,-0.223241 z"
       id="path37"
       style="fill:#009491;fill-opacity:1;stroke-width:0.352778" /><path
       d="m 30.315531,26.050885 c -0.114377,0.32246 -0.439596,0.551216 -0.850265,0.63941 l 0.15572,0.54984 c 0.47819,-0.09922 1.029406,-0.432718 1.227843,-0.982557 z"
       id="path38"
       style="fill:#009491;fill-opacity:1;stroke-width:0.352778" /><path
       d="m 30.435476,24.03476 c -0.254938,-0.40513 -0.508494,-0.810295 -0.810295,-1.172703 l -0.450603,0.351398 c 0.289387,0.348643 0.525039,0.726228 0.76207,1.10243 z"
       id="path39"
       style="fill:#009491;fill-opacity:1;stroke-width:0.352778" /><path
       d="m 19.404115,24.822866 1.280195,0.545712 0.216352,-0.529167 -1.265026,-0.538797 z"
       id="path40"
       style="fill:#009491;fill-opacity:1;stroke-width:0.352778" /><path
       d="m 22.649318,26.111563 1.324292,0.438221 0.16812,-0.547088 -1.302244,-0.431341 z"
       id="path41"
       style="fill:#009491;fill-opacity:1;stroke-width:0.352778" /><path
       d="m 9.8145569,15.139469 c -0.6008158,0.589809 -0.9742664,1.409735 -0.9742664,2.317856 0,0.792374 0.2838768,1.517226 0.7551561,2.080824 C 9.7814805,18.792624 10.176966,18.12979 10.71855,17.617168 10.161831,16.941916 9.8255988,16.079269 9.8145569,15.139469 Z"
       id="path42"
       style="fill:#009491;fill-opacity:1;stroke-width:0.352778" /><path
       d="m 17.175971,13.048908 c 0.417547,-0.14883 0.864023,-0.234266 1.331171,-0.234266 0.592561,0 1.152031,0.133671 1.656398,0.366572 -0.487821,-1.180994 -1.648143,-2.011927 -3.00549,-2.011927 -0.566385,0 -1.099679,0.146071 -1.564076,0.401002 0.655955,0.33624 1.201632,0.850265 1.581997,1.478633 z"
       id="path43"
       style="fill:#009491;fill-opacity:1;stroke-width:0.352778" /><path
       d="m 13.444287,16.527297 c 0.381706,0 0.749653,0.0565 1.098303,0.158475 0.03583,-1.423529 0.821302,-2.661003 1.978872,-3.333468 -0.577391,-0.905369 -1.5875,-1.507561 -2.740907,-1.507561 -1.794192,0 -3.249401,1.455209 -3.249401,3.250777 0,0.789622 0.282498,1.513099 0.751029,2.076697 0.622864,-0.406506 1.364262,-0.644913 2.16214,-0.644913 z"
       id="path44"
       style="fill:#009491;fill-opacity:1;stroke-width:0.352778" /><path
       d="m 17.407393,20.593766 c -0.02618,1.065213 -0.471276,2.028472 -1.179618,2.727149 0.474062,0.270093 1.021115,0.425802 1.605421,0.425802 1.796979,0 3.250776,-1.453832 3.250776,-3.2494 0,-0.221866 -0.02205,-0.436845 -0.06477,-0.644913 -0.684883,0.560846 -1.559948,0.898489 -2.512166,0.898489 -0.381706,0 -0.749653,-0.0565 -1.099679,-0.157095 z"
       id="path45"
       style="fill:#009491;fill-opacity:1;stroke-width:0.352778" /><path
       d="m 14.60034,17.461452 c -0.359657,-0.137802 -0.748277,-0.214975 -1.156158,-0.214975 -1.795569,0 -3.250777,1.455208 -3.250777,3.250776 0,1.795568 1.455208,3.250777 3.250777,3.250777 1.795568,0 3.250776,-1.456584 3.250776,-3.250777 0,-0.06477 -0.0055,-0.128157 -0.0096,-0.191548 -1.081758,-0.562257 -1.870004,-1.605421 -2.084987,-2.84427 z"
       id="path46"
       style="fill:#009491;fill-opacity:1;stroke-width:0.352778" /><path
       d="m 21.757848,16.782002 c 0,1.795569 -1.455208,3.250777 -3.250776,3.250777 -1.794193,0 -3.249401,-1.455208 -3.249401,-3.250777 0,-1.794192 1.455208,-3.249401 3.249401,-3.249401 1.795568,0 3.250776,1.455209 3.250776,3.249401"
       id="path47"
       style="fill:#009491;fill-opacity:1;stroke-width:0.352778" /></g></svg>
