<?xml version="1.0" encoding="UTF-8" standalone="no"?>
<svg
   fill="#009491"
   width="100pt"
   height="100pt"
   version="1.1"
   viewBox="0 0 100 100"
   id="svg2"
   sodipodi:docname="core.svg"
   inkscape:version="1.3.2 (091e20e, 2023-11-25)"
   xmlns:inkscape="http://www.inkscape.org/namespaces/inkscape"
   xmlns:sodipodi="http://sodipodi.sourceforge.net/DTD/sodipodi-0.dtd"
   xmlns="http://www.w3.org/2000/svg"
   xmlns:svg="http://www.w3.org/2000/svg">
  <defs
     id="defs2" />
  <sodipodi:namedview
     id="namedview2"
     pagecolor="#505050"
     bordercolor="#ffffff"
     borderopacity="1"
     inkscape:showpageshadow="0"
     inkscape:pageopacity="0"
     inkscape:pagecheckerboard="1"
     inkscape:deskcolor="#505050"
     inkscape:document-units="pt"
     showgrid="false"
     inkscape:zoom="4.7475"
     inkscape:cx="66.561348"
     inkscape:cy="66.666667"
     inkscape:window-width="1600"
     inkscape:window-height="846"
     inkscape:window-x="0"
     inkscape:window-y="38"
     inkscape:window-maximized="0"
     inkscape:current-layer="g2" />
  <g
     id="g2">
    <path
       d="m86.301 52.398c0.89844 2 3 3.5 5.3008 3.5 3.1992 0 5.8984-2.6016 5.8984-5.8984 0-3.1992-2.6016-5.8984-5.8984-5.8984-2.3984 0-4.3984 1.3984-5.3008 3.3984h-12.5v-8.1016h7.8984c0.5 0 1.1016-0.19922 1.5-0.5l5.8008-4.3984c0.80078 0.39844 1.6992 0.69922 2.6992 0.69922 3.1992 0 5.8984-2.6016 5.8984-5.8984 0-3.1992-2.6016-5.8984-5.8984-5.8984-3.1992 0-5.8984 2.6016-5.8984 5.8984 0 0.5 0.10156 0.89844 0.19922 1.3008l-5.1016 3.8984h-7.1992c-0.69922-4.1992-4-7.5-8.1992-8.1992v-7.1992l3.8984-5.1016c0.39844 0.10156 0.89844 0.19922 1.3008 0.19922 3.1992 0 5.8984-2.6016 5.8984-5.8984 0-3.1992-2.6016-5.8984-5.8984-5.8984-3.1992 0-5.8984 2.6016-5.8984 5.8984 0 1 0.30078 1.8984 0.69922 2.6992l-4.5 5.8984c-0.30078 0.39844-0.5 0.89844-0.5 1.5v7.8984h-8.1016v-12.598c2-0.89844 3.5-2.8984 3.5-5.3008 0-3.1992-2.6016-5.8984-5.8984-5.8984-3.1992 0-5.8984 2.6016-5.8984 5.8984 0 2.3984 1.3984 4.3984 3.3984 5.3008v12.5h-8.1016v-7.8984c0-0.5-0.19922-1.1016-0.5-1.5l-4.3984-5.8008c0.39844-0.80078 0.69922-1.6992 0.69922-2.6992 0-3.1992-2.6016-5.8984-5.8984-5.8984-3.3008 0-5.8984 2.6016-5.8984 5.8984 0 3.1992 2.6016 5.8984 5.8984 5.8984 0.5 0 0.89844-0.10156 1.3008-0.19922l3.8984 5.1016v7.1992c-4.1992 0.69922-7.5 4-8.1992 8.1992h-7.1992l-5.1016-3.8984c0.10156-0.39844 0.19922-0.89844 0.19922-1.3008 0-3.1992-2.6016-5.8984-5.8984-5.8984-3.3008 0-5.8984 2.6016-5.8984 5.8984 0 3.1992 2.6016 5.8984 5.8984 5.8984 1 0 1.8984-0.30078 2.6992-0.69922l5.8008 4.3984c0.39844 0.30078 0.89844 0.5 1.5 0.5h7.8984v8.1016h-12.5c-0.89844-2-2.8984-3.3984-5.3008-3.3984-3.1992 0-5.8984 2.6016-5.8984 5.8984 0 3.1992 2.6016 5.8984 5.8984 5.8984 2.3984 0 4.3984-1.3984 5.3008-3.5h12.5v8.1016h-7.8984c-0.5 0-1.1016 0.19922-1.5 0.5l-5.8008 4.3984c-0.80078-0.39844-1.6992-0.69922-2.6992-0.69922-3.1992 0-5.8984 2.6016-5.8984 5.8984 0 3.1992 2.6016 5.8984 5.8984 5.8984 3.3008 0 5.8984-2.6016 5.8984-5.8984 0-0.5-0.10156-0.89844-0.19922-1.3008l5.1016-3.8984h7.1992c0.69922 4.1992 4 7.6016 8.1992 8.1992v7.1992l-3.8984 5.1016c-0.39844-0.10156-0.89844-0.19922-1.3008-0.19922-3.1992 0-5.8984 2.6016-5.8984 5.8984 0 3.1992 2.6016 5.8984 5.8984 5.8984 3.3008 0 5.8984-2.6016 5.8984-5.8984 0-1-0.30078-1.8984-0.69922-2.6992l4.3984-5.8008c0.30078-0.39844 0.5-1 0.5-1.5v-7.8984h8.1016v12.5c-2 0.89844-3.3984 3-3.3984 5.3008 0 3.1992 2.6016 5.8984 5.8984 5.8984 3.1992 0 5.8984-2.6016 5.8984-5.8984 0-2.3984-1.3984-4.3984-3.5-5.3008v-12.398h8.1016v7.8984c0 0.5 0.19922 1.1016 0.5 1.5l4.3984 5.8008c-0.39844 0.80078-0.69922 1.6992-0.69922 2.6992 0 3.1992 2.6016 5.8984 5.8984 5.8984 3.1992 0 5.8984-2.6016 5.8984-5.8984 0-3.1992-2.6016-5.8984-5.8984-5.8984-0.5 0-0.89844 0.10156-1.3008 0.19922l-3.8984-5.1016v-7.1992c4.1992-0.69922 7.6016-4 8.1992-8.1992h7.1992l5.1016 3.8984c-0.10156 0.39844-0.19922 0.89844-0.19922 1.3008 0 3.1992 2.6016 5.8984 5.8984 5.8984 3.1992 0 5.8984-2.6016 5.8984-5.8984 0-3.1992-2.6016-5.8984-5.8984-5.8984-1 0-1.8984 0.30078-2.6992 0.69922l-5.7969-4.5c-0.39844-0.30078-1-0.5-1.5-0.5h-7.8984v-8.1016zm-17.402 11.5c0 2.8008-2.3008 5-5 5h-27.797c-2.8008 0-5-2.3008-5-5v-27.797c0-2.8008 2.3008-5 5-5h27.699c2.8008 0 5 2.3008 5 5v27.797z"
       id="path2" />
    <path
       d="m 54.150041,45.183272 v -6.281417 c 0.221933,0.119256 0.41412,0.238521 0.571298,0.370566 l 6.508114,5.431738 c 0.157157,0.132042 0.30158,0.292822 0.445981,0.480231 h -7.52561 z m -2.041979,0.424868 c 0,0.704904 0.68702,1.277791 1.531219,1.277791 h 8.675493 v 14.056658 c 0,0.704904 -0.687021,1.27779 -1.531219,1.27779 H 39.352797 c -0.844198,0 -1.531219,-0.572886 -1.531219,-1.27779 V 39.646068 c 0,-0.704905 0.687021,-1.277791 1.531219,-1.277791 h 12.755265 v 7.240681 z"
       fill-rule="evenodd"
       id="path1-9"
       style="stroke-width:0.272218" />
  </g>
</svg>
