<?xml version="1.0" encoding="UTF-8"?>
<svg fill="#009491" width="100pt" height="100pt" version="1.1" viewBox="0 0 100 100" xmlns="http://www.w3.org/2000/svg">
 <g>
  <path d="m71.73 37.605v-1.7148l6.7617-7.9258c0.30859-0.35938 0.43359-0.83984 0.34766-1.3008-0.085938-0.46484-0.37891-0.86328-0.79688-1.0898l-6.5039-3.4922c-0.78516-3.5742-3.9648-6.2578-7.7734-6.2578-1.8281 0-3.4961 0.64453-4.8398 1.6836l-0.003906-5.1484c0-0.49219-0.23047-0.95312-0.625-1.25s-0.91016-0.38672-1.375-0.25c-0.32031 0.09375-7.2031 2.1875-9.1133 8.7812-1.5508-0.57812-3.1523-1.0195-4.7891-1.2773l-1.0312-0.16406c-0.44922-0.070313-0.91016 0.058593-1.2578 0.35547-0.34766 0.29687-0.54688 0.73047-0.54688 1.1875v3.0938c0 2.8438 0.52344 5.6523 1.5547 8.3555 0.50391 1.2773 1.1133 2.4961 1.8203 3.6523l-4.4961-1.0508c-0.51953-0.12109-1.0703 0.03125-1.4531 0.41016l-9.375 9.2617c-0.35938 0.35547-0.52344 0.86328-0.44531 1.3633 0.082032 0.5 0.39844 0.92969 0.85156 1.1523l9.0156 4.4336c0.21484 0.10547 0.45312 0.16016 0.69141 0.16016 0.15625 0 13.852-1.6992 14.008-1.7188 1.9297 1.1016 4.125 1.7188 6.4102 1.7188 7.1484 0 12.965-5.8164 12.965-12.969zm0-11.871 3.125 1.6797-3.125 3.6641zm-15.934-11.008v9.7031c-1.5469-1.375-3.2578-2.5586-5.0859-3.5156 0.80078-3.293 3.2773-5.2109 5.0859-6.1875zm-5.1484 28.445c-0.48828-0.71094-1.4609-0.89062-2.1719-0.40234-0.71094 0.48828-0.89062 1.4609-0.40234 2.1719 0.28516 0.41406 0.59375 0.80469 0.91797 1.1758l-10.375 1.2812-6.625-3.2578 7.1992-7.1094 7.8086 1.8242c1.4336 0.33984 2.5586-1.4219 1.5117-2.5703-1.3945-1.5352-2.5195-3.2773-3.3867-5.1641 1.0117 0.27734 2.1797 0.52734 3.4141 0.63281 0.046876 0.003906 0.089844 0.007813 0.13672 0.007813 0.80078 0 1.4844-0.61328 1.5547-1.4258 0.074219-0.85938-0.5625-1.6172-1.4219-1.6914-2.0742-0.17969-3.9844-0.84766-4.9492-1.2305-0.35156-1.5039-0.55078-3.0312-0.55078-4.5742v-1.2539c4.3906 0.85937 8.4805 3.0781 11.602 6.3086l0.89062 0.91406v6.7539c0 0.86328 0.69922 1.5625 1.5625 1.5625s1.5625-0.69922 1.5625-1.5625v-7.3281-0.078125-4.3672c0-2.668 2.1719-4.8398 4.8398-4.8398 2.6719 0 4.8398 2.1719 4.8398 4.8398v13.816c0 5.4258-4.4141 9.8398-9.8438 9.8398-3.2383 0.003907-6.2734-1.5938-8.1133-4.2734z"/>
  <path d="m41.973 78.699h-0.62891v-10.961c0-0.42188-0.16797-0.82422-0.46875-1.1172l-7.8477-7.6719c-0.97656-0.95703-2.3125-1.4375-3.6836-1.3047-1.3633 0.125-2.5938 0.84375-3.3828 1.9648-0.125 0.17969-0.22266 0.36719-0.32031 0.55859l-0.80469-0.83984 0.72266-12.664c0.078125-1.3828-0.41797-2.75-1.3711-3.7539-0.94922-1.0039-2.2891-1.582-3.6719-1.582-2.4844 0-4.582 1.7812-4.9844 4.2344l-2.7461 16.844c-0.074218 0.45312 0.054688 0.91797 0.35547 1.2695l9.5078 11.082v3.9414h-0.82813c-0.86328 0-1.5625 0.69922-1.5625 1.5625v7.3789c0 0.86328 0.69922 1.5625 1.5625 1.5625h20.152c0.86328 0 1.5625-0.69922 1.5625-1.5625v-7.3789c0-0.86328-0.69922-1.5625-1.5625-1.5625zm-25.984-16.508 2.6367-16.129c0.15234-0.9375 0.94922-1.6133 1.8984-1.6133 1.1094 0 1.9844 0.92969 1.9219 2.0352l-0.76172 13.344c-0.027344 0.43359 0.13281 0.85547 0.42969 1.168 2.1523 2.25 5.1953 5.4297 6.0898 6.3633 0.59766 0.62109 1.5859 0.64453 2.2109 0.046875s0.64453-1.5859 0.046876-2.2109c-1.9219-2.0078 0.10547 0.10938-1.7891-1.8672-0.50391-0.52344-0.56641-1.3359-0.14844-1.9297 0.26172-0.375 0.65625-0.60156 1.1094-0.64453 0.44922-0.042968 0.88281 0.10938 1.207 0.42969l7.3789 7.2109v10.305h-12.445v-4.5195c0-0.375-0.13281-0.73438-0.375-1.0195zm24.422 23.887h-17.027v-4.2539h17.027z"/>
  <path d="m86.859 63.676c0.30078-0.35156 0.42969-0.81641 0.35547-1.2695l-2.7539-16.848c-0.40234-2.4531-2.4961-4.2344-4.9844-4.2344-1.3828 0-2.7227 0.57812-3.6719 1.582-0.94922 1.0039-1.4492 2.375-1.3711 3.7539l0.72266 12.664-0.80469 0.83984c-0.097656-0.19141-0.19531-0.37891-0.32031-0.55859-0.78516-1.1211-2.0195-1.8359-3.3828-1.9648-1.3672-0.12891-2.707 0.34766-3.6836 1.3047l-7.8477 7.6719c-0.30078 0.29297-0.46875 0.69531-0.46875 1.1172v10.961h-0.62891c-0.86328 0-1.5625 0.69922-1.5625 1.5625v7.3789c0 0.86328 0.69922 1.5625 1.5625 1.5625h20.152c0.86328 0 1.5625-0.69922 1.5625-1.5625v-7.3789c0-0.86328-0.69922-1.5625-1.5625-1.5625h-0.82812v-3.9414zm-10.242 22.402h-17.027v-4.2539h17.027zm-2.0156-12.918c-0.24219 0.28516-0.375 0.64453-0.375 1.0195v4.5195h-12.445v-10.305l7.3789-7.2109c0.32422-0.32031 0.76172-0.47266 1.207-0.42969 0.45312 0.042969 0.85156 0.27344 1.1094 0.64453 0.41797 0.59375 0.35547 1.4062-0.14844 1.9336-0.69141 0.72266-1.0938 1.1445-1.7852 1.8672-0.59766 0.625-0.57422 1.6133 0.046875 2.2109 0.625 0.59375 1.6133 0.57031 2.2109-0.046875 2.7266-2.8477 3.7188-3.8867 6.0898-6.3633 0.30078-0.3125 0.45703-0.73438 0.42969-1.168l-0.76172-13.344c-0.0625-1.1055 0.8125-2.0352 1.9219-2.0352 0.94922 0 1.7461 0.67969 1.8984 1.6133l2.6367 16.129z"/>
 </g>
</svg>
