<?xml version="1.0" encoding="UTF-8" standalone="no"?>
<!-- Created with Inkscape (http://www.inkscape.org/) -->

<svg
   width="127.558"
   height="127.55724"
   viewBox="0 0 33.749719 33.74952"
   version="1.1"
   id="svg1"
   xml:space="preserve"
   xmlns="http://www.w3.org/2000/svg"
   xmlns:svg="http://www.w3.org/2000/svg"><defs
     id="defs1" /><g
     id="layer2"
     transform="translate(-52.916665,-0.96546455)"><path
       d="m 52.916665,17.312281 2.108142,-4.218198 2.11011,4.218198 h -1.582073 c 0,3.464798 1.473329,6.712082 4.050133,9.10672 0.213571,0.197776 0.225451,0.531998 0.02768,0.74557 -0.197749,0.213518 -0.531971,0.225425 -0.745569,0.0277 -2.788422,-2.59265 -4.386347,-6.116715 -4.386347,-9.880281 z m 25.67125,10.688902 c 0.213571,0.197644 0.225425,0.531813 0.02768,0.745596 -2.590667,2.788179 -6.114679,4.386262 -9.878271,4.386262 v 1.581944 l -4.220183,-2.107936 4.220183,-2.110316 v 1.582208 c 3.462761,0 6.710045,-1.473464 9.104682,-4.050241 0.199761,-0.213519 0.532316,-0.225425 0.745914,-0.02752 z M 80.697914,8.4880837 c 2.788443,2.5926253 4.386527,6.1166903 4.386527,9.8802823 h 1.581943 l -2.1082,4.218199 -2.110051,-4.218199 h 1.582209 c 0,-3.464798 -1.473465,-6.712082 -4.050242,-9.10672 C 79.766582,9.0638964 79.754675,8.7296747 79.95232,8.5160766 80.150228,8.3024785 80.484397,8.2903077 80.697916,8.4880836 Z M 70.319554,0.96546455 74.537779,3.0736083 70.319554,5.1837291 v -1.582076 c -3.464772,0 -6.712056,1.4733322 -9.106694,4.0501092 -0.197776,0.2135981 -0.531997,0.2254514 -0.745595,0.027702 -0.213572,-0.1977761 -0.225452,-0.5319977 -0.02768,-0.7455958 2.592626,-2.7883907 6.11669,-4.3863284 9.880282,-4.3863284 z m 0,24.25722345 -2.110105,1.056031 -1.054047,-1.582076 H 65.573326 L 65.04527,23.114541 63.463194,22.586512 v -1.582076 l -1.582076,-1.054047 1.054048,-1.582076 -1.054048,-2.110131 1.582076,-1.054047 v -1.582076 l 1.582076,-0.528029 0.528056,-1.582076 h 1.582076 l 1.054047,-1.5820761 1.582076,1.0540471 2.110105,-1.0540471 1.054073,1.5820761 h 1.582076 l 0.528029,1.582076 1.582076,0.528029 v 1.582076 l 1.582076,1.054047 -1.056005,1.582102 1.056005,2.110105 -1.582076,1.054047 v 1.582076 l -1.582076,0.528029 -0.528029,1.582102 h -1.582076 l -1.054073,1.582076 z m -3.48451,-8.258201 c -0.298635,-0.278845 -0.77126,-0.266965 -1.056031,0.02572 -0.284771,0.290698 -0.272918,0.753454 0.02572,1.032325 l 2.988125,2.780506 c 0.304562,0.284771 0.789067,0.265007 1.069896,-0.03956 l 4.483232,-4.868862 c 0.27686,-0.298609 0.25117,-0.761365 -0.05538,-1.030341 -0.306518,-0.270933 -0.779197,-0.245242 -1.056005,0.05339 l -3.967056,4.309189 z"
       fill="#009491"
       id="path1-2"
       style="stroke-width:0.264583" /></g></svg>
