<svg width="256" height="256" viewBox="0 0 256 256" fill="none" xmlns="http://www.w3.org/2000/svg">
	<style>
    circle {
      fill: #515151;
    }
    @media (prefers-color-scheme: dark)  {
      circle {
        fill: transparent;
      }
    }
  </style>
	<circle cx="128" cy="128" r="128" fill="#515151"/>
	<path d="M129.28 96.8677C137.177 83.822 147.358 72.6602 159.068 64.1357C146.688 44.1197 125.677 28.2011 97.3756 18.2402C86.7549 14.496 75.4428 21.1602 72.1329 33.0991C68.8231 45.0381 74.7305 57.7541 85.3513 61.4748C99.7428 66.5376 122.22 77.3463 129.28 96.8677Z" fill="#E6F5F5"/>
	<path d="M212.277 65.0306C177.922 65.0306 147.589 90.0859 134.726 124.772C136.947 125.691 139.147 126.68 141.325 127.787C155.004 134.71 166.505 144.812 175.387 157.128C177.461 134.404 195.791 117.896 212.298 117.896C225.286 117.896 235.802 106.075 235.802 91.4752C235.802 76.8753 225.265 65.0306 212.277 65.0306Z" fill="#7DD7D7"/>
	<path d="M111.327 202.858C116.25 205.354 122.116 210.488 122.116 220.802H181.211C181.211 186.586 163.719 156.492 135.544 142.269C104.687 126.68 68.0272 133.32 42.1351 159.176C29.9222 171.351 28.812 192.356 39.6632 206.061C50.4934 219.789 69.1793 221.014 81.3712 208.84C91.7406 198.502 103.995 199.161 111.327 202.858Z" fill="#00ADAA"/>
</svg>
