<svg width="24" height="24" viewBox="0 0 24 24" fill="none" xmlns="http://www.w3.org/2000/svg">
<path d="M8.64011 1.12463C8.64011 0.826362 8.52173 0.540307 8.31101 0.329397C8.10029 0.118488 7.8145 0 7.5165 0C7.2185 0 6.9327 0.118488 6.72199 0.329397C6.51127 0.540307 6.39289 0.826362 6.39289 1.12463V3.01102C4.58936 3.05137 2.78939 3.19053 1.00106 3.42788C0.854785 3.44738 0.713778 3.49552 0.58609 3.56956C0.458403 3.6436 0.346535 3.74208 0.256875 3.8594C0.167215 3.97671 0.101518 4.11055 0.0635355 4.25327C0.0255528 4.396 0.0160282 4.54481 0.0355054 4.69122C0.0549826 4.83763 0.10308 4.97877 0.177052 5.10657C0.251024 5.23437 0.349421 5.34634 0.466626 5.43608C0.583831 5.52583 0.717549 5.59158 0.860143 5.6296C1.00274 5.66762 1.15142 5.67715 1.29769 5.65766C4.20267 5.27192 7.13719 5.15747 10.0633 5.31577C9.44335 7.41211 8.58899 9.43173 7.5165 11.3363C6.95635 10.342 6.4551 9.31554 6.01536 8.26231C5.89549 7.99494 5.67609 7.78496 5.40386 7.67707C5.13164 7.56919 4.82809 7.57192 4.55785 7.68469C4.28761 7.79746 4.07202 8.01136 3.95698 8.28084C3.84194 8.55033 3.83654 8.85411 3.94192 9.12752C4.57219 10.6382 5.31954 12.0971 6.17716 13.4911C4.57583 15.8335 2.64417 17.9316 0.442252 19.7201C0.322637 19.8114 0.222556 19.9258 0.147945 20.0565C0.0733344 20.1873 0.0257123 20.3317 0.00790257 20.4812C-0.00990715 20.6307 0.00245828 20.7823 0.0442657 20.9269C0.0860731 21.0715 0.156471 21.2063 0.251286 21.3232C0.3461 21.4401 0.4634 21.5367 0.59623 21.6074C0.72906 21.6781 0.874715 21.7213 1.02456 21.7346C1.1744 21.7479 1.32538 21.7309 1.46855 21.6847C1.61171 21.6384 1.74415 21.5639 1.858 21.4655C3.99586 19.7291 5.89809 17.7208 7.5165 15.4915C7.65882 15.6894 7.80414 15.8843 7.95096 16.0778C8.13175 16.3152 8.39936 16.471 8.69493 16.5109C8.99049 16.5509 9.2898 16.4716 9.52701 16.2907C9.76422 16.1097 9.91989 15.8419 9.95979 15.546C9.99969 15.2502 9.92053 14.9506 9.73975 14.7132C9.43413 14.3143 9.14049 13.9065 8.85584 13.4911C10.388 11.0023 11.5644 8.31104 12.351 5.49571C12.8154 5.54219 13.2769 5.59768 13.7353 5.65766C14.0307 5.69703 14.3297 5.61733 14.5664 5.43608C14.8031 5.25484 14.9582 4.98691 14.9975 4.69122C15.0368 4.39553 14.9572 4.09632 14.7761 3.8594C14.595 3.62247 14.3274 3.46725 14.0319 3.42788C12.2437 3.19007 10.4437 3.0509 8.64011 3.01102V1.12463Z" fill="white"/>
<path fill-rule="evenodd" clip-rule="evenodd" d="M16.5054 8.99707C16.7142 8.99707 16.9188 9.0553 17.0964 9.16522C17.2739 9.27514 17.4174 9.4324 17.5106 9.61936L23.8778 22.3652C23.945 22.4975 23.9855 22.6418 23.9967 22.7898C24.008 22.9378 23.9899 23.0865 23.9435 23.2275C23.8971 23.3685 23.8232 23.4988 23.7262 23.6111C23.6292 23.7233 23.511 23.8153 23.3783 23.8816C23.2456 23.9479 23.1011 23.9872 22.9532 23.9974C22.8053 24.0075 22.6568 23.9882 22.5163 23.9407C22.3758 23.8931 22.2462 23.8182 22.1348 23.7202C22.0234 23.6223 21.9324 23.5032 21.8672 23.3699L20.6807 20.9932H12.3315L11.1435 23.3699C11.0783 23.5032 10.9874 23.6223 10.876 23.7202C10.7646 23.8182 10.6349 23.8931 10.4944 23.9407C10.354 23.9882 10.2055 24.0075 10.0575 23.9974C9.9096 23.9872 9.76513 23.9479 9.63246 23.8816C9.49978 23.8153 9.38153 23.7233 9.28453 23.6111C9.18752 23.4988 9.11367 23.3685 9.06724 23.2275C9.02081 23.0865 9.00272 22.9378 9.014 22.7898C9.02529 22.6418 9.06573 22.4975 9.133 22.3652L15.5001 9.61936C15.5934 9.4324 15.7368 9.27514 15.9144 9.16522C16.092 9.0553 16.2966 8.99707 16.5054 8.99707ZM19.5571 18.7439L16.5054 12.6364L13.4551 18.7439H19.5571Z" fill="white"/>
</svg>
