<svg
   xmlns:dc="http://purl.org/dc/elements/1.1/"
   xmlns:cc="http://creativecommons.org/ns#"
   xmlns:rdf="http://www.w3.org/1999/02/22-rdf-syntax-ns#"
   xmlns:svg="http://www.w3.org/2000/svg"
   xmlns="http://www.w3.org/2000/svg"
   xmlns:sodipodi="http://sodipodi.sourceforge.net/DTD/sodipodi-0.dtd"
   xmlns:inkscape="http://www.inkscape.org/namespaces/inkscape"
   version="1.1"
   id="Layer_1"
   x="0px"
   y="0px"
   viewBox="0 0 890.7712 224.31355"
   enable-background="new 0 0 792 612"
   xml:space="preserve"
   inkscape:version="0.92.3 (2405546, 2018-03-11)"
   sodipodi:docname="hbase-1.svg"
   inkscape:export-filename="hbase_logo_filledin.png"
   inkscape:export-xdpi="90"
   inkscape:export-ydpi="90"><metadata
   id="metadata3285"><rdf:RDF><cc:Work
       rdf:about=""><dc:format>image/svg+xml</dc:format><dc:type
         rdf:resource="http://purl.org/dc/dcmitype/StillImage" /><dc:title /></cc:Work></rdf:RDF></metadata><defs
   id="defs3283" /><sodipodi:namedview
   pagecolor="#ffffff"
   bordercolor="#666666"
   borderopacity="1"
   objecttolerance="10"
   gridtolerance="10"
   guidetolerance="10"
   inkscape:pageopacity="0"
   inkscape:pageshadow="2"
   inkscape:window-width="3726"
   inkscape:window-height="2049"
   id="namedview3281"
   showgrid="false"
   inkscape:zoom="1.5424837"
   inkscape:cx="-39.541613"
   inkscape:cy="96.504513"
   inkscape:window-x="114"
   inkscape:window-y="55"
   inkscape:window-maximized="1"
   inkscape:current-layer="Layer_1"
   fit-margin-top="0"
   fit-margin-left="0"
   fit-margin-right="0"
   fit-margin-bottom="0" />
<path
   d="m 126.99724,186.998 h -9.895 v -51.583 h 9.895 z M 117.2238,135.40587 117.10224,103.461 h 9.895 l -0.0405,31.98539 z m -0.12156,51.59213 h -9.896 V 154.881 H 43.622236 v 32.117 h -19.466 v -83.537 h 19.466 v 31.954 h 55.128 8.457004 9.896 v 51.583 z m 0,-83.537 h -9.896 v 31.98539 l 10.01756,-0.0405 z"
   id="path3269"
   inkscape:connector-curvature="0"
   style="fill:#ba160c"
   sodipodi:nodetypes="cccccccccccccccccccccccccccccc" />
<path
   d="m 229.35024,144.66 c 6.812,4.218 10.219,10.652 10.219,19.303 0,6.272 -2,11.571 -6.002,15.897 -4.325,4.758 -10.165,7.137 -17.519,7.137 h -28.629 v -19.465 h 28.629 c 2.812,0 4.218,-2.109 4.218,-6.327 0,-4.216 -1.406,-6.325 -4.218,-6.325 h -28.629 v -19.303 h 27.17 c 2.811,0 4.217,-2.109 4.217,-6.327 0,-4.216 -1.406,-6.326 -4.217,-6.326 h -27.17 V 103.46 h 27.17 c 7.353,0 13.192,2.379 17.519,7.137 3.892,4.325 5.839,9.625 5.839,15.896 0,7.787 -2.866,13.842 -8.597,18.167 z m -41.931,42.338 h -52.312 v -51.42 h 19.466 5.259 27.588 v 19.303 h -32.847 v 12.652 h 32.847 v 19.465 z m 0,-64.073 h -32.847 l 0.0405,13.24974 -19.466,-0.48623 -0.0405,-32.22851 h 52.312 v 19.465 z"
   id="path3271"
   inkscape:connector-curvature="0"
   style="fill:#ba160c"
   sodipodi:nodetypes="cscsccsssccsssccscsccccccccccccccccccccc" />
<path
   d="m 248.53424,81.744994 v -8.92 h 14.532 v -5.353 c 0,-1.932 -0.644,-2.899 -1.933,-2.899 h -12.6 v -8.919 h 12.6 c 3.223,0 5.836,1.164 7.842,3.494 2.007,2.33 3.011,5.104 3.011,8.325 v 26.463 h -8.921 v -12.19 h -14.531 z m 118.603,12.191 h -29.587 c -3.469,0 -6.417,-1.152 -8.845,-3.458 -2.429,-2.304 -3.642,-5.191 -3.642,-8.659 v -14.049 c 0,-3.47 1.213,-6.356 3.642,-8.662 2.428,-2.304 5.376,-3.455 8.845,-3.455 h 29.587 v 8.919 h -29.587 c -2.378,0 -3.567,1.066 -3.567,3.197 v 14.049 c 0,2.131 1.189,3.196 3.567,3.196 h 29.587 z m 93.883,0 h -8.996 v -14.718 h -22.895 v 14.718 h -8.92 v -38.282 h 8.92 v 14.644 h 22.895 v -14.644 h 8.996 z m 93.885,-29.363 h -31.889 v 5.725 h 29.807 v 8.92 h -29.807 v 5.797 h 31.814 v 8.92 h -40.735 v -38.282 h 40.809 v 8.92 z m -306.371,-8.919 v 8.919 h -12.674 c -1.239,0 -1.858,0.967 -1.858,2.899 v 5.353 h 5.575 2.435 6.522 v 8.92 h -6.522 -2.435 -5.575 v 12.19 h -8.92 v -26.463 c 0,-3.221 1.004,-5.996 3.011,-8.325 2.006,-2.33 4.596,-3.494 7.768,-3.494 h 12.673 z m -100.462,25.794 v -8.92 h 13.083 c 1.288,0 1.933,-1.313 1.933,-3.939 0,-2.676 -0.645,-4.015 -1.933,-4.015 h -13.083 v -8.919 h 13.083 c 3.32,0 5.995,1.363 8.028,4.088 1.883,2.478 2.825,5.425 2.825,8.846 0,3.419 -0.942,6.342 -2.825,8.771 -2.033,2.725 -4.708,4.088 -8.028,4.088 z m -77.012004,12.488 h -8.92 v -12.19 h -14.532 v -8.92 h 14.532 v -5.353 c 0,-1.932 -0.644,-2.899 -1.932,-2.899 h -12.6 v -8.919 h 12.6 c 3.222,0 5.835,1.164 7.842,3.494 2.007,2.33 3.01,5.104 3.01,8.325 z m 77.012004,-38.282 v 8.919 h -15.016 v 7.954 h 15.016 v 8.92 h -15.016 v 12.488 h -8.92 v -38.282 h 23.936 z m -100.463004,26.091 h -7.604 -1.354 -5.575 v 12.19 h -8.92 v -26.463 c 0,-3.221 1.004,-5.996 3.01,-8.325 2.007,-2.33 4.597,-3.494 7.768,-3.494 h 12.674 v 8.919 h -12.674 c -1.239,0 -1.858,0.967 -1.858,2.899 v 5.353 h 5.575 1.354 7.604 z"
   id="path3273"
   style="fill:#666666"
   inkscape:connector-curvature="0" />
<path
   d="m 349.73624,186.998 h -19.465 v -26.602 h -31.094 -0.618 V 140.93 h 0.618 31.094 v -11.68 c 0,-4.216 -1.406,-6.324 -4.218,-6.324 h -27.494 v -19.465 h 27.494 c 7.03,0 12.733,2.541 17.114,7.623 4.379,5.083 6.569,11.139 6.569,18.167 z m -51.177,-26.602 h -19.547 -12.165 v 26.602 h -19.466 V 129.25 c 0,-7.028 2.19,-13.083 6.569,-18.167 4.379,-5.083 10.03,-7.623 16.952,-7.623 h 27.656 v 19.466 h -27.656 c -2.704,0 -4.055,2.108 -4.055,6.324 v 11.68 h 12.165 19.547 z"
   id="path3275"
   inkscape:connector-curvature="0"
   style="fill:#ba160c" />
<path
   d="m 457.74024,161.206 c 0,7.03 -2.109,13.031 -6.327,18.006 -4.541,5.19 -10.273,7.786 -17.193,7.786 h -72.02 v -19.465 h 72.02 c 2.704,0 4.055,-2.109 4.055,-6.327 0,-4.216 -1.352,-6.325 -4.055,-6.325 h -52.394 c -6.92,0 -12.652,-2.596 -17.193,-7.787 -4.327,-4.865 -6.49,-10.813 -6.49,-17.843 0,-7.028 2.218,-13.083 6.651,-18.167 4.434,-5.083 10.112,-7.623 17.032,-7.623 h 72.021 v 19.464 h -72.021 c -2.703,0 -4.055,2.109 -4.055,6.326 0,4.109 1.352,6.164 4.055,6.164 h 52.394 c 6.92,0 12.652,2.596 17.193,7.787 4.218,4.974 6.327,10.976 6.327,18.004 z"
   id="path3277"
   inkscape:connector-curvature="0"
   style="fill:#ba160c" />
<polygon
   points="591.906,352.207 661.331,352.207 661.331,371.672 572.44,371.672 572.44,288.135 661.494,288.135 661.494,307.599 591.906,307.599 591.906,320.089 656.952,320.089 656.952,339.555 591.906,339.555 "
   id="polygon3279"
   style="fill:#ba160c"
   transform="translate(-106.58876,-184.674)" />
<path
   style="fill:#050505;stroke-width:0.40616438"
   d="m 853.35692,216.30565 c -0.2179,-0.57301 -0.3961,-1.58555 -0.3961,-2.25008 0,-1.80566 -1.391,-4.18942 -3.4479,-5.90881 -1.0068,-0.84152 -2.4605,-2.47888 -3.2304,-3.63855 -1.6392,-2.46872 -3.4153,-3.43589 -9.9745,-5.43156 -7.1911,-2.18792 -9.4008,-4.06556 -10.0501,-8.53975 l -0.3236,-2.23014 -1.3101,1.89848 c -2.563,3.71417 -4.2582,4.30733 -7.7328,2.70568 -2.2062,-1.01697 -3.8131,-1.10999 -5.6437,-0.32668 -1.168,0.4998 -1.3857,0.47829 -2.1488,-0.21233 -0.815,-0.73755 -0.8976,-0.73984 -2.0538,-0.0569 -0.9117,0.53858 -1.6485,0.64502 -3.0305,0.43779 -2.2076,-0.33106 -3.3877,0.31274 -4.8661,2.6546 -2.799,4.43399 -4.7921,2.40575 -4.7823,-4.86677 0.011,-8.07681 3.8133,-12.65304 14.7739,-17.7802 5.641,-2.63872 8.1956,-4.34851 9.7675,-6.53728 1.2111,-1.68653 1.3177,-1.74565 1.8454,-1.02399 1.122,1.53448 4.9867,9.44382 6.8329,13.98389 2.103,5.17182 2.7388,6.13079 3.536,5.33361 0.6731,-0.67313 -0.9554,-5.43954 -4.1172,-12.05035 -7.8466,-16.40618 -19.4394,-28.14064 -33.9082,-34.32238 -6.6405,-2.83713 -9.9043,-3.44038 -18.5255,-3.42406 -6.55463,0.0124 -8.16221,0.15204 -12.59104,1.09355 -6.47499,1.37649 -13.71665,3.69328 -22.94829,7.34174 -9.29812,3.67472 -9.30696,3.67487 -18.68356,0.31882 -3.79764,-1.35925 -8.35053,-2.84006 -10.11753,-3.29071 -3.61129,-0.921 -8.94235,-1.08205 -11.94012,-0.36071 -3.45696,0.83183 -8.32097,3.43263 -14.29406,7.64305 -7.16682,5.0519 -11.02394,7.054 -16.16118,8.38877 -4.44795,1.15567 -6.32915,2.16203 -7.43667,3.97828 -0.88445,1.45041 -0.97015,2.6157 -0.30048,4.08547 0.45853,1.00635 4.84538,4.20859 9.97792,7.28352 1.39109,0.8334 2.63226,1.68196 2.75816,1.88567 0.30012,0.4856 -6.65139,3.95252 -11.7292,5.84969 -9.02862,3.37327 -18.73216,5.50725 -33.36231,7.33694 -9.74706,1.219 -11.40825,1.56082 -18.68356,3.8445 -2.90408,0.91156 -7.10788,2.03662 -9.34179,2.50011 -9.85388,2.0445 -18.78325,-0.37923 -20.13725,-5.4659 -0.24729,-0.929 -0.68857,-1.96326 -0.98062,-2.29834 -1.80296,-2.06858 -2.4714,-7.04077 -1.31048,-9.74794 0.33529,-0.78187 1.01068,-3.79764 1.50087,-6.70172 1.68772,-9.9988 3.40176,-15.40669 7.09455,-22.38382 6.46948,-12.22339 19.35044,-27.74251 34.95349,-42.11234 10.31023,-9.495351 20.10799,-16.797418 42.75816,-31.866761 13.99943,-9.313933 14.13466,-9.433529 15.7445,-13.924014 0.35776,-0.997938 2.09433,-7.421979 3.85904,-14.275653 5.49667,-21.347565 9.02244,-29.406575 15.56931,-35.587436 3.69297,-3.486514 9.57927,-5.660051 13.00196,-4.801007 1.95241,0.490021 2.04971,1.45123 0.69606,6.876756 -2.25581,9.041545 -3.01647,14.75676 -3.03741,22.821543 -0.0206,7.96115 0.47178,11.041168 2.36169,14.770723 2.59253,5.11612 4.34146,6.103414 14.49881,8.184751 35.92239,7.360865 59.89043,18.426064 76.92053,35.511513 15.772,15.823345 28.6263,40.586975 36.989,71.258865 l 1.5918,5.8379 3.0462,2.3339 c 7.7726,5.95505 12.1268,11.95204 14.4468,19.89721 1.2277,4.20469 1.041,13.14202 -0.3848,18.41434 -1.5207,5.62306 -2.8188,7.98634 -4.3871,7.98634 -0.4414,0 -0.9253,-0.43621 -1.1555,-1.04185 z m 0.6663,-11.79509 c 0.1461,-0.58199 0.1687,-3.09514 0.05,-5.58476 -0.3769,-7.92286 -2.8227,-13.58243 -8.4237,-19.49164 -4.3015,-4.53829 -12.0947,-10.01405 -14.2521,-10.01405 -0.8234,0 -0.872,0.14419 -0.6579,1.95218 0.1272,1.0737 0.9879,3.94208 1.9128,6.37419 0.9248,2.43211 1.7838,5.28515 1.9087,6.34012 0.1994,1.68319 0.099,2.04663 -0.8223,2.96759 -1.2653,1.26526 -2.4576,1.3248 -4.28,0.21374 -0.7512,-0.45797 -1.4548,-0.74377 -1.5634,-0.63508 -0.1087,0.10868 -0.073,0.93562 0.08,1.83766 0.554,3.2791 2.4536,4.596 9.7436,6.75455 10.686,3.16413 12.8823,4.61608 14.5712,9.63289 0.3598,1.06898 1.4318,0.85415 1.7334,-0.34739 z M 599.46535,189.48317 c 1.87193,-0.3372 5.6188,-1.3148 8.32637,-2.17243 5.81922,-1.84326 10.27695,-2.77049 22.59101,-4.69906 14.44709,-2.26264 20.25952,-3.46486 26.69917,-5.52238 4.09481,-1.30831 7.83567,-2.99083 7.81036,-3.51285 -0.008,-0.16378 -1.21647,-1.02887 -2.68559,-1.92243 -1.46913,-0.89356 -4.21573,-3.13254 -6.10355,-4.97552 -1.88781,-1.84297 -3.60956,-3.35085 -3.82608,-3.35085 -1.02252,0 -3.60076,1.43976 -6.85337,3.82711 -9.31556,6.83743 -12.58087,8.18925 -27.42896,11.35538 -7.36769,1.57105 -9.98319,2.46232 -13.42789,4.57576 -4.76455,2.92322 -5.79075,3.40738 -8.91638,4.20678 -1.74402,0.44604 -4.50172,0.81099 -6.12824,0.81099 -4.24598,0 -4.71878,1.32121 -0.72528,2.02681 2.35416,0.41595 5.99096,0.19529 10.66843,-0.64731 z m 202.37057,-0.83626 c 0.3066,-0.37139 1.3409,-1.02264 2.2986,-1.44723 l 1.7412,-0.77196 3.742,1.13496 c 4.6857,1.42118 10.8291,1.63067 12.4909,0.42597 0.5495,-0.39835 1.6239,-1.17768 2.3876,-1.73185 0.8379,-0.60806 1.6834,-0.91396 2.1323,-0.77148 0.4092,0.12986 0.7439,0.1737 0.7439,0.0974 0,-0.41375 -5.7377,-13.54051 -6.2809,-14.36962 l -0.6444,-0.98337 -2.0442,1.61589 c -1.1244,0.88875 -4.9351,3.354 -8.4684,5.47834 -9.0748,5.45617 -11.922,8.23747 -11.2349,10.97489 0.1995,0.79506 0.5157,1.02329 1.4178,1.02329 0.6386,0 1.4119,-0.30386 1.7185,-0.67525 z M 630.77864,165.25693 c 0.98259,-0.50263 1.96428,-1.20888 2.18152,-1.56945 1.70457,-2.82912 -5.09569,-2.53095 -6.9277,0.30374 -0.48456,0.74979 -0.47156,0.9552 0.0964,1.52312 0.91045,0.91045 2.54348,0.82005 4.64982,-0.25741 z m 12.79859,-8.87687 c 4.37294,-1.17413 8.74852,-2.61481 10.08721,-3.32126 2.79805,-1.47656 5.17602,-4.03814 6.86895,-7.3993 0.67509,-1.34034 1.93525,-3.09432 2.80037,-3.89771 0.86511,-0.8034 1.57293,-1.75584 1.57293,-2.11654 0,-3.16238 -10.86584,-4.59962 -17.87122,-2.36387 -8.48893,2.70922 -16.59693,11.35562 -16.79276,17.90786 -0.12004,4.01599 2.08056,4.21251 13.33452,1.19082 z m 166.73629,-12.4112 c 0,-0.73586 -2.7081,-4.33731 -4.6238,-6.14909 -3.7173,-3.51568 -7.5144,-5.68144 -14.8293,-8.45821 -4.3443,-1.64913 -6.1352,-2.66029 -6.1352,-3.46399 0,-0.18876 0.3655,-0.70876 0.8123,-1.15554 2.2808,-2.28077 13.2032,0.52952 20.9083,5.37964 3.0429,1.91537 6.5146,4.61864 9.4102,7.32738 2.215,2.07201 2.5808,2.28613 2.5808,1.51062 0,-1.21995 -2.0106,-4.90132 -4.4584,-8.16307 -6.1235,-8.15992 -16.0865,-14.5144 -27.2339,-17.36996 -9.0071,-2.30729 -16.82293,-2.43853 -23.49057,-0.39445 -6.16303,1.88938 -13.31953,6.34375 -20.50603,12.76342 -10.11405,9.03482 -13.1093,11.55318 -15.69437,13.19555 -1.55338,0.9869 -2.77052,1.971 -2.70475,2.18688 0.0657,0.21589 1.23199,0.74835 2.59161,1.18326 l 2.47204,0.79075 6.02811,-2.7696 c 11.91899,-5.47614 22.86044,-9.00125 31.00722,-9.98989 12.43014,-1.50845 26.33094,2.42 38.78874,10.9619 3.7986,2.60461 5.077,3.26292 5.077,2.6144 z M 700.24299,178.3329 c -12.78561,-1.58 -24.86345,-6.04822 -34.72705,-12.84735 -2.23548,-1.54095 -2.87136,-2.2057 -2.97514,-3.1102 -0.25775,-2.24656 1.80045,-3.57553 7.35837,-4.75124 4.88926,-1.03426 8.12155,-2.6735 15.51882,-7.87024 9.99858,-7.02422 13.95371,-8.61998 20.47087,-8.25932 3.05103,0.16884 4.957,0.6822 15.06852,4.05863 15.15672,5.06111 31.23005,10.78746 32.43827,11.55659 2.76962,1.76308 -2.01382,8.27308 -9.5136,12.94749 -5.65382,3.52387 -13.11946,6.2921 -20.78753,7.70796 -4.22582,0.78027 -18.30161,1.12994 -22.85153,0.56768 z m -94.46248,-63.07077 c -0.15883,-0.41105 -0.18408,-2.42157 -0.0561,-4.46781 0.56259,-8.99442 5.45198,-19.163998 12.11103,-25.190087 2.55263,-2.310004 6.62956,-4.727956 7.97183,-4.727956 1.33546,0 2.16536,1.395165 3.16363,5.318498 0.52567,2.065951 1.34864,4.287651 1.8288,4.937112 0.48017,0.64947 0.81126,1.235103 0.73573,1.301413 -0.0755,0.06628 -1.96505,1.571933 -4.19894,3.345816 -5.45618,4.332604 -13.01138,11.313274 -17.54955,16.214954 -3.09736,3.34547 -3.76583,3.89073 -4.00644,3.26806 z"
   id="path18940"
   inkscape:connector-curvature="0" /></svg>