<svg xmlns="http://www.w3.org/2000/svg" viewBox="0 0 327.41 129.13"><title>livy</title><g id="be37c2cb-4617-43ed-8c9c-ac36fd379092" data-name="Laag 1"><path d="M692.34,207.17v86.26c1.83.3,2.31-1.26,3.16-2.09,7.61-7.47,15.22-14.95,22.68-22.56,1.92-2,3.23-2,5.11-.06.91,1,1.92,1.86,2.82,2.83,1.82,2,2.35,3,.21,5.1q-19.25,18.92-38.23,38.12c-1.55,1.56-2.32,1.53-3.87,0q-18.82-19-37.86-37.78c-1.91-1.89-1.72-2.8.1-4.73,1-1.09,2.08-2.18,3.18-3.17,2.36-2.14,3.15-1.8,5,.12,7.21,7.39,14.59,14.63,21.92,21.91,1,1,2.12,2,3.73,3.57v-87c-8.48,8.63-16.57,16.2-23.8,24.18-1.39,1.54-3.6,4.69-4.75,3.72A61.45,61.45,0,0,1,645,229c-1.09-1.27.55-2,1.27-2.77,12.71-12.74,25.49-25.41,38.17-38.18,1.67-1.69,2.7-1.71,4.39,0q18.84,19,37.86,37.78c1.83,1.81,1.23,2.58-.22,4.38a29.47,29.47,0,0,1-3.18,3.17c-2.14,1.95-3.18,2-5.13,0C710,224.9,701.61,216.55,692.34,207.17Z" transform="translate(-591.03 -186.8)" style="fill:#ef7222"/></g><g id="f04f825a-fc21-4036-b787-3e1d694fda27" data-name="Laag 2"><path d="M762.87,311,723.71,191h16.73l18.69,59.09c5.16,16.2,9.61,30.79,12.82,44.85h.36c3.38-13.88,8.37-29,13.71-44.68L806.3,191h16.55L780,311Z" transform="translate(-591.03 -186.8)" style="fill:#1d1d1f"/><path d="M862.55,311V260.09L824.64,191h17.62l16.91,33.11c4.63,9.08,8.19,16.38,11.93,24.74h.36c3.38-7.83,7.48-15.66,12.1-24.74L900.82,191h17.62l-40.23,68.88V311Z" transform="translate(-591.03 -186.8)" style="fill:#1d1d1f"/><path d="M591,191h15.49V298h51.26v13H591Z" transform="translate(-591.03 -186.8)" style="fill:#1d1d1f"/></g></svg>