 <svg xmlns="http://www.w3.org/2000/svg" viewBox="0 0 259 270" fill="none"><path d="M4.93677 53.809C19.5725 53.809 81.0502 2.23682 130.048 2.23682C179.046 2.23682 239.108 53.809 255.16 53.809C263.186 53.809 249.967 182.714 212.669 210.891C211.253 210.891 208.892 210.891 207.004 210.891C187.175 243.065 129.576 267.668 129.576 267.668C129.576 267.668 76.699 249.216 50.7324 210.891C48.844 210.891 46.7155 210.891 46.4832 210.891C12.4908 193.385 -5.44964 53.809 4.93677 53.809Z" fill="white" stroke="#9BBBE4" stroke-width="2.5"></path><path d="M129.69 257.43C129.637 257.454 129.588 257.476 129.541 257.496C129.514 257.486 129.485 257.475 129.455 257.464C129.093 257.331 128.557 257.131 127.865 256.863C126.48 256.326 124.47 255.518 121.98 254.436C116.999 252.272 110.103 249.014 102.454 244.643C87.133 235.888 68.8935 222.726 56.9101 205.03L56.5382 204.48H55.8751H55.8647H55.8544H55.844H55.8337H55.8233H55.8129H55.8025H55.7922H55.7818H55.7714H55.761H55.7506H55.7402H55.7298H55.7194H55.709H55.6985H55.6881H55.6777H55.6673H55.6568H55.6464H55.636H55.6255H55.6151H55.6046H55.5942H55.5837H55.5733H55.5628H55.5524H55.5419H55.5314H55.521H55.5105H55.5H55.4896H55.4791H55.4686H55.4581H55.4477H55.4372H55.4267H55.4162H55.4057H55.3952H55.3847H55.3743H55.3638H55.3533H55.3428H55.3323H55.3218H55.3113H55.3008H55.2903H55.2798H55.2693H55.2589H55.2484H55.2379H55.2274H55.2169H55.2064H55.1959H55.1854H55.1749H55.1644H55.154H55.1435H55.133H55.1225H55.112H55.1015H55.0911H55.0806H55.0701H55.0596H55.0492H55.0387H55.0282H55.0177H55.0073H54.9968H54.9864H54.9759H54.9654H54.955H54.9445H54.9341H54.9237H54.9132H54.9028H54.8923H54.8819H54.8715H54.8611H54.8506H54.8402H54.8298H54.8194H54.809H54.7986H54.7882H54.7778H54.7674H54.757H54.7466H54.7363H54.7259H54.7155H54.7052H54.6948H54.6845H54.6741H54.6638H54.6534H54.6431H54.6328H54.6224H54.6121H54.6018H54.5915H54.5812H54.5709H54.5606H54.5504H54.5401H54.5298H54.5196H54.5093H54.4991H54.4888H54.4786H54.4684H54.4581H54.4479H54.4377H54.4275H54.4173H54.4071H54.397H54.3868H54.3766H54.3665H54.3563H54.3462H54.3361H54.3259H54.3158H54.3057H54.2956H54.2855H54.2754H54.2654H54.2553H54.2452H54.2352H54.2252H54.2151H54.2051H54.1951H54.1851H54.1751H54.1651H54.1552H54.1452H54.1352H54.1253H54.1154H54.1054H54.0955H54.0856H54.0757H54.0659H54.056H54.0461H54.0363H54.0264H54.0166H54.0068H53.997H53.9872H53.9774H53.9676H53.9579H53.9481H53.9384H53.9287H53.9189H53.9092H53.8996H53.8899H53.8802H53.8706H53.8609H53.8513H53.8417H53.8321H53.8225H53.8129H53.8033H53.7938H53.7842H53.7747H53.7652H53.7557H53.7462H53.7367H53.7273H53.7178H53.7084H53.699H53.6895H53.6802H53.6708H53.6614H53.6521H53.6427H53.6334H53.6241H53.6148H53.6055H53.5963H53.587H53.5778H53.5686H53.5594H53.5502H53.541H53.5318H53.5227H53.5136H53.5045H53.4954H53.4863H53.4772H53.4682H53.4592H53.4501H53.4411H53.4322H53.4232H53.4142H53.4053H53.3964H53.3875H53.3786H53.3698H53.3609H53.3521H53.3433H53.3345H53.3257H53.3169H53.3082H53.2995H53.2908H53.2821H53.2734H53.2647H53.2561H53.2475H53.2389H53.2303H53.2218H53.2132H53.2047H53.1962H53.1877H53.1792H53.1708H53.1623H53.1539H53.1455H53.1372H53.1288H53.1205H53.1122H53.1039H53.0956H53.0874H53.0791H53.0709H53.0627H53.0546H53.0464H53.0383H53.0302H53.0221H53.014H53.0059H52.9979H52.9899H52.9819H52.974H52.966H52.9581H52.9502H52.9423H52.9345H52.9266H52.9188H52.911H52.9033H52.8955H52.8878H52.8801H52.8724H52.8647H52.8571H52.8495H52.8419H52.8343H52.8268H52.8193H52.8118H52.8043H52.7968H52.7894H52.782H52.7746H52.7673H52.7599H52.7526H52.7453H52.7381H52.7308H52.7236H52.7164H52.7093H52.7021H52.695H52.6879H52.6808H52.6738H52.6668H52.6598H52.6528H52.6459H52.639H52.6321H52.6252H52.6184H52.6115H52.6048H52.598H52.5912H52.5845H52.5778H52.5712H52.5646H52.5579H52.5514H52.5448H52.5383H52.5318H52.5253H52.5188H52.5124H52.506H52.4997H52.4933H52.487H52.4807H52.4745H52.4682H52.462H52.4559H52.4497H52.4436H52.4375H52.4314H52.4254H52.4194H52.4134H52.4075H52.4015H52.3956H52.3898H52.3839H52.3781H52.3724H52.3666H52.3609H52.3552H52.3495H52.3439H52.3383H52.3327H52.3272H52.3217H52.3162H52.3107H52.3053H52.2999H52.2946H52.2892H52.2839H52.2786H52.2734H52.2682H52.263H52.2579H52.2528H52.2477H52.2426H52.2376H52.2326H52.2276H52.2227H52.2178H52.2129H52.2115C48.5958 202.535 45.0898 198.949 41.7461 194.014C38.331 188.974 35.1451 182.617 32.22 175.394C26.3702 160.949 21.6164 143.176 18.1492 125.876C14.6827 108.579 12.5126 91.8062 11.813 79.3797C11.4627 73.1567 11.4844 68.0747 11.8812 64.5768C12.0811 62.8145 12.3672 61.5436 12.7011 60.7477C12.9087 60.2526 13.0645 60.0901 13.1246 60.0436C15.113 60.0259 17.6956 59.1729 20.6442 57.8635C23.6709 56.5194 27.2593 54.6111 31.2814 52.3453C34.6502 50.4475 38.2999 48.3133 42.1985 46.0336C47.7005 42.8163 53.6982 39.3091 60.102 35.7672C81.9151 23.7023 107.479 11.8027 130.026 11.8027C152.57 11.8027 177.801 23.6996 199.45 35.7652C204.847 38.7732 210.006 41.7824 214.834 44.6088C215.259 44.8577 215.682 45.1051 216.102 45.351C220.447 47.8959 224.515 50.2784 228.216 52.3473C232.271 54.6144 235.919 56.524 239.04 57.869C242.009 59.1482 244.639 59.98 246.748 60.0404C246.808 60.1377 246.892 60.3043 246.985 60.5696C247.247 61.3134 247.471 62.5005 247.624 64.1425C247.928 67.401 247.928 72.1433 247.605 77.9772C246.96 89.6291 245.037 105.468 241.792 122.139C238.545 138.813 233.984 156.276 228.077 171.192C222.229 185.96 215.133 198.041 206.843 204.48H206.838H206.829H206.82H206.811H206.803H206.794H206.785H206.776H206.767H206.758H206.75H206.741H206.732H206.723H206.714H206.705H206.696H206.687H206.678H206.669H206.66H206.651H206.642H206.633H206.623H206.614H206.605H206.596H206.587H206.578H206.568H206.559H206.55H206.541H206.531H206.522H206.513H206.504H206.494H206.485H206.475H206.466H206.457H206.447H206.438H206.428H206.419H206.41H206.4H206.391H206.381H206.372H206.362H206.352H206.343H206.333H206.324H206.314H206.305H206.295H206.285H206.276H206.266H206.256H206.247H206.237H206.227H206.217H206.208H206.198H206.188H206.178H206.169H206.159H206.149H206.139H206.129H206.119H206.109H206.1H206.09H206.08H206.07H206.06H206.05H206.04H206.03H206.02H206.01H206H205.99H205.98H205.97H205.96H205.95H205.94H205.93H205.919H205.909H205.899H205.889H205.879H205.869H205.859H205.848H205.838H205.828H205.818H205.808H205.797H205.787H205.777H205.767H205.756H205.746H205.736H205.725H205.715H205.705H205.694H205.684H205.674H205.663H205.653H205.643H205.632H205.622H205.611H205.601H205.59H205.58H205.569H205.559H205.549H205.538H205.528H205.517H205.507H205.496H205.485H205.475H205.464H205.454H205.443H205.433H205.422H205.411H205.401H205.39H205.38H205.369H205.358H205.348H205.337H205.326H205.316H205.305H205.294H205.284H205.273H205.262H205.252H205.241H205.23H205.219H205.209H205.198H205.187H205.176H205.166H205.155H205.144H205.133H205.122H205.112H205.101H205.09H205.079H205.068H205.057H205.047H205.036H205.025H205.014H205.003H204.992H204.981H204.971H204.96H204.949H204.938H204.927H204.916H204.905H204.894H204.883H204.872H204.861H204.85H204.839H204.828H204.817H204.806H204.795H204.784H204.773H204.762H204.751H204.74H204.729H204.718H204.707H204.696H204.685H204.674H204.663H204.652H204.641H204.63H204.619H204.608H204.597H204.586H204.575H204.564H204.553H204.542H204.53H204.519H204.508H204.497H204.486H204.475H204.464H204.453H204.442H204.43H204.419H204.408H204.397H204.386H204.375H204.364H204.353H204.341H204.33H204.319H204.308H204.297H204.286H204.274H204.263H204.252H204.241H204.23H204.219H204.207H204.196H204.185H204.174H204.163H204.152H204.14H204.129H204.118H204.107H204.096H204.084H204.073H204.062H204.051H204.04H204.028H204.017H204.006H203.995H203.984H203.972H203.961H203.95H203.939H203.928H203.916H203.905H203.894H203.883H203.872H203.86H203.849H203.838H203.827H203.816H203.804H203.793H203.782H203.771H203.76H203.748H203.737H203.726H203.715H203.704H203.692H203.681H203.67H203.659H203.648H203.636H203.625H203.614H203.603H203.592H203.58H203.569H203.558H203.547H203.536H203.524H203.513H203.502H203.491H203.48H203.469H203.457H203.446H203.435H203.424H203.413H203.402H203.39H203.379H203.368H203.357H203.346H203.335H203.323H203.312H203.301H203.29H203.279H203.268H203.257H203.245H203.234H203.223H203.212H203.201H203.19H203.179H203.168H203.157H203.146H203.134H203.123H203.112H203.101H203.09H203.079H203.068H203.057H203.046H203.035H203.024H203.013H203.002H202.991H202.98H202.969H202.957H202.946H202.935H202.924H202.913H202.902H202.891H202.88H202.869H202.858H202.847H202.837H202.826H202.815H202.804H202.793H202.782H202.771H202.76H202.749H202.738H202.727H202.716H202.705H202.694H202.684H202.673H202.662H202.651H202.64H202.629H202.618H202.607H202.597H202.586H202.575H202.564H202.553H202.542H202.532H202.521H202.51H202.499H202.489H202.478H202.467H202.456H202.446H202.435H202.424H202.413H202.403H202.392H202.381H202.371H202.36H202.349H202.339H202.328H202.317H202.307H202.296H202.285H202.275H202.264H202.253H202.243H202.232H202.222H202.211H202.201H202.19H202.18H202.169H202.158H202.148H202.137H202.127H202.116H202.106H202.096H202.085H202.075H202.064H202.054H202.043H202.033H202.023H202.012H202.002H201.991H201.981H201.971H201.273L200.906 205.075C191.805 219.85 173.936 232.999 158.181 242.501C150.329 247.236 143.051 251.036 137.736 253.652C135.08 254.96 132.915 255.971 131.416 256.655C130.667 256.997 130.084 257.257 129.69 257.43ZM13.1517 60.0272C13.1518 60.0278 13.1477 60.0304 13.1391 60.0334C13.1473 60.0282 13.1516 60.0267 13.1517 60.0272Z" fill="white" stroke="#00A0F0" stroke-width="2.5"></path><path d="M97.3837 103.749C99.186 102.544 108.07 97.4544 120.267 93.1785C126.077 91.4848 139.51 88.0601 146.767 87.9108C145.477 85.3769 144.312 82.0124 142.354 81.1289C140.396 80.2455 137.352 81.1062 133.794 77.5768C130.236 74.0473 126.465 70.7209 118.075 72.8007C109.684 74.8805 106.236 76.8773 104.574 79.1279C103.819 80.1508 102.283 84.7608 101.595 87.2445C100.907 89.7283 100.544 91.6992 98.7916 93.4671C97.0395 95.2351 96.2423 99.447 97.3837 103.749Z" fill="#172538"></path><path d="M156.697 90.8729C145.228 91.0645 135.398 92.4166 120.049 97.6547C104.701 102.893 91.4087 109.225 86.7099 113.692C77.0985 122.827 88.3414 123.321 93.7571 123.458C98.0897 123.568 104.332 122.893 106.912 122.542C106.516 121.698 105.654 119.55 105.367 117.708C105.008 115.407 106.588 110.653 113.958 107.713C121.328 104.774 141.264 99.4438 144.987 100.58C147.965 101.49 149.566 106.324 149.993 108.628C152.528 107.303 158.401 104.214 161.614 102.462C165.63 100.271 176.507 90.542 156.697 90.8729Z" fill="#172538"></path><path d="M86.8394 76.9984C87.3149 77.0139 88.2503 77.2939 89.4508 77.7808L89.4804 77.835L89.4916 79.3483L89.4725 79.3881C88.6466 78.9777 87.8509 78.633 87.0956 78.3835C87.0374 78.3626 87.0096 78.3543 87.0096 78.3543C87.0374 78.3626 87.0677 78.3753 87.0956 78.3835C87.3422 78.4715 88.1058 78.7575 89.3995 79.4574L89.3285 79.5197C89.3285 79.5197 87.6002 80.2545 86.7356 80.5518L86.6684 80.5357C85.641 79.256 85.7838 78.333 85.7838 78.333C85.7838 78.333 85.8542 76.9686 86.8394 76.9984Z" fill="#01C0FA"></path><path d="M93.1815 81.5538C92.7743 81.2897 92.3696 81.0302 91.9723 80.7842C91.5586 80.5296 91.1453 80.2864 90.735 80.0593C90.7116 80.0486 90.6858 80.0334 90.6645 80.0158C90.2611 79.7907 89.8676 79.5837 89.4745 79.3882L89.4504 77.7763C89.5319 77.808 89.6159 77.8441 89.6999 77.8803C90.0195 78.0163 90.3555 78.1609 90.7059 78.3211C91.1029 78.5027 91.5144 78.6999 91.9402 78.9127C92.3333 79.1082 92.7407 79.3193 93.1461 79.5374C93.4953 79.7276 93.8516 79.9198 94.2107 80.128C94.2271 80.1367 94.2365 80.1432 94.2529 80.1519L94.2801 80.2015L94.3551 82.2901L94.3266 82.3233C93.9447 82.0629 93.5629 81.8026 93.1815 81.5538Z" fill="#01C0FA"></path><path d="M101.151 87.6156C100.79 87.3085 100.418 87.0018 100.044 86.6906C99.6834 86.395 99.3207 86.0949 98.949 85.7997C98.5817 85.502 98.2055 85.2093 97.8268 84.912C97.4412 84.6127 97.0555 84.3134 96.6679 84.0211C96.2827 83.7332 95.8975 83.4454 95.5103 83.1645C95.3733 83.0635 95.2293 82.9605 95.0878 82.8619C94.847 82.6887 94.6018 82.5178 94.3635 82.3491C94.3516 82.338 94.3376 82.3339 94.3257 82.3228L94.2521 80.1514C94.2779 80.1666 94.3038 80.1818 94.3296 80.197C94.7076 80.4183 95.0925 80.6418 95.4735 80.8791C95.8613 81.1185 96.2472 81.3649 96.6311 81.6183C96.9583 81.8322 97.2766 82.0511 97.5973 82.2745C97.6633 82.3205 97.7224 82.3644 97.7884 82.4104C98.1896 82.6954 98.5584 82.9746 98.9087 83.2521C99.3018 83.565 99.667 83.8696 100.004 84.166C100.228 84.3606 100.43 84.549 100.63 84.7329C100.792 84.8906 100.957 85.0527 101.114 85.2128C101.492 85.5929 101.844 85.9808 102.181 86.3831L102.197 86.4446L102.275 88.5377L102.255 88.566C101.975 88.3205 101.69 88.0774 101.396 87.8278C101.315 87.7548 101.232 87.6887 101.151 87.6156Z" fill="#01C0FA"></path><path d="M102.225 86.4377C102.631 86.9249 103.007 87.4293 103.344 87.9489C103.353 87.9669 103.368 87.9825 103.38 88.0051C103.412 87.4242 103.901 86.611 103.901 86.611C103.795 87.6431 103.812 88.6018 104.154 89.3651C104.46 89.2738 104.79 88.9815 105.144 88.5826C104.92 89.2507 104.643 89.555 104.525 89.6603C104.958 89.4588 105.552 89.5092 106.172 89.5978C105.387 89.6875 104.813 89.8664 104.485 90.1517C105.99 91.5044 107.592 93.0332 109.257 94.6678C109.048 94.712 108.873 94.6491 108.719 94.5165C108.42 94.2164 106.445 92.2706 103.675 89.8029C103.597 89.7344 103.516 89.6613 103.438 89.5927C103.416 89.5751 103.393 89.5529 103.371 89.5353C103.079 89.2787 102.782 89.013 102.473 88.7478C102.404 88.6858 102.331 88.6263 102.262 88.5643L102.26 88.5598L102.183 86.3839C102.196 86.4065 102.21 86.4221 102.225 86.4377Z" fill="#01C0FA"></path><path d="M89.4043 79.4616C89.7605 79.6538 90.1569 79.8768 90.596 80.1352C90.6193 80.1458 90.6407 80.1635 90.664 80.1742C91.0445 80.4001 91.4488 80.6481 91.8888 80.9294C92.2652 81.1692 92.6655 81.4312 93.092 81.7199C93.4619 81.9691 93.8462 82.234 94.2498 82.5235L94.2192 82.5637L92.0072 83.4811L91.938 83.4721C91.1441 83.5253 90.7153 83.4138 90.2313 83.1801C90.1026 83.1156 89.9645 83.0445 89.8309 82.971C89.4136 82.7418 88.9835 82.4786 88.5803 82.2006C88.189 81.9337 87.8202 81.6545 87.5096 81.3963C87.3126 81.2283 87.139 81.0711 87.0002 80.9242C86.8758 80.7928 86.7653 80.6655 86.6687 80.5424C87.5946 80.2292 88.7088 79.8012 89.4043 79.4616Z" fill="#01C0FA"></path><path d="M94.4256 82.6554C94.5815 82.7696 94.7443 82.8858 94.9072 83.002C95.0819 83.1293 95.2661 83.2631 95.4458 83.3994C95.5356 83.4676 95.6324 83.5378 95.7223 83.606C96.0057 83.8146 96.2896 84.0346 96.5874 84.2588C96.9493 84.536 97.3255 84.8287 97.7066 85.1305C98.0759 85.4212 98.4501 85.7209 98.8341 86.0386C99.2014 86.3363 99.576 86.6475 99.9556 86.9677C100.299 87.2547 100.646 87.5462 101.002 87.8557C101.021 87.8689 101.035 87.8845 101.054 87.8976C101.408 88.2027 101.762 88.5163 102.13 88.8369C102.139 88.8435 102.16 88.8626 102.17 88.8691L102.142 88.893L101.481 89.1675L101.437 89.1721C101.448 89.1602 101.447 89.1376 101.458 89.1257C100.575 89.4743 99.1332 89.4536 97.999 89.0771C97.4784 88.9045 96.9521 88.6469 96.4068 88.3118C96 88.0592 95.5915 87.7607 95.1627 87.4146C94.7885 87.1149 94.4036 86.7742 94.0058 86.3994C94.2488 86.3954 94.5109 86.3517 94.7761 86.271C94.8215 86.2579 94.8713 86.2424 94.9212 86.2268C94.971 86.2113 95.0184 86.1912 95.0638 86.1781C94.1282 86.303 93.3268 85.9907 92.5865 85.4807C92.8653 85.51 93.2965 85.5087 93.7411 85.3826C93.8024 85.3667 93.8613 85.3462 93.9246 85.3233C93.9381 85.3159 93.954 85.313 93.9675 85.3056C93.6362 85.3403 93.3425 85.3368 93.0633 85.296C93.0056 85.2866 92.9479 85.2771 92.8877 85.2631C92.7996 85.2409 92.7116 85.2187 92.6281 85.194C92.5724 85.1776 92.5212 85.1587 92.463 85.1377C92.3372 85.0892 92.211 85.0292 92.0843 84.9578C92.0446 84.9385 92.0068 84.9122 91.9671 84.8929C91.9129 84.858 91.8633 84.8206 91.8137 84.7832C91.5873 84.6256 91.3957 84.4782 91.2344 84.3435C91.1515 84.2774 91.0826 84.2154 91.0136 84.1534C90.9898 84.1312 90.9635 84.1046 90.9352 84.0849C90.8638 84.0184 90.8018 83.9584 90.7468 83.9005C90.668 83.8205 90.6125 83.7511 90.5739 83.7019C90.6132 83.7097 90.65 83.713 90.6983 83.7159C91.0084 83.728 91.4774 83.6356 91.8329 83.5173L91.1555 83.7941L91.8329 83.5173C91.8827 83.5017 91.9166 83.489 91.9575 83.4784C91.9529 83.477 92.7151 83.1593 94.2442 82.5252C94.2581 82.5293 94.3735 82.6136 94.4256 82.6554Z" fill="#01C0FA"></path><path d="M102.333 89.0009C102.616 89.251 102.908 89.5076 103.198 89.7711C103.201 89.7756 103.208 89.7777 103.21 89.7822C103.253 89.8175 103.291 89.8553 103.336 89.8951C103.534 90.0745 103.707 90.2317 104.107 90.5996C103.92 90.8546 103.883 91.2677 103.88 91.721C103.703 91.3545 103.666 90.9348 103.808 90.5227C102.594 91.2578 101.347 91.5294 100.296 90.9199C100.202 90.8657 100.11 90.8045 100.02 90.7364C100.447 90.9192 100.836 90.8825 101.402 90.5313L101.407 90.5289L101.402 90.5313C100.323 90.6176 99.6866 90.4789 98.9618 90.0719C98.7904 89.9721 98.6141 89.8633 98.4279 89.7364C99.6144 90.1019 100.611 89.8437 101.441 89.1727L102.174 88.8708C102.224 88.9082 102.279 88.9546 102.333 89.0009Z" fill="#01C0FA"></path><path fill-rule="evenodd" clip-rule="evenodd" d="M117.731 111.006H146.166C151.277 111.099 161.498 114.24 161.498 126.06C161.498 137.88 152.949 140.277 148.675 139.998L153.693 157.282H159.547L157.038 165.088H143.378L137.524 141.113H129.44L125.816 157.282H131.391L129.161 165.366H104.908L107.138 157.282H112.992L121.077 119.091H115.78L117.731 111.006ZM135.012 119.37H142.26C146.163 119.37 147.557 122.325 147.557 126.339C147.557 130.353 144.212 133.866 140.309 133.866H131.667L135.012 119.37Z" fill="#172538"></path></svg> 