<svg width="23" height="25" viewBox="0 0 23 25" fill="none" xmlns="http://www.w3.org/2000/svg">
<path d="M22.4664 9.00285C22.4603 7.48581 21.9371 6.01527 20.9837 4.83555C21.3069 3.48617 21.2059 2.07013 20.6928 0.781402C20.5918 0.53294 20.3857 0.343057 20.1292 0.264278C19.7676 0.141058 18.396 -0.0932655 15.6044 1.71667C14.4045 1.39953 13.1642 1.25005 11.9219 1.27227C10.6796 1.25005 9.43927 1.39953 8.23535 1.71667C5.37095 -0.133648 3.88019 0.165302 3.58124 0.254195C3.3247 0.337018 3.11865 0.530939 3.01767 0.781402C2.50459 2.06615 2.39956 3.4781 2.71872 4.82547C1.73297 5.99908 1.20571 7.49186 1.24005 9.02508C1.24005 14.744 4.51246 16.4706 7.51225 17.0808C7.35873 17.4586 7.25166 17.8525 7.19712 18.2545C7.19106 18.2969 7.19106 18.3413 7.19712 18.3837V19.9674C4.46609 20.1957 3.88225 18.5979 3.82573 18.4161C3.81159 18.3736 3.79543 18.3312 3.77725 18.2908C3.25004 17.2142 2.32284 16.388 1.19163 15.99C0.71895 15.8304 0.205891 16.087 0.0463062 16.5617C-0.111256 17.0364 0.145289 17.5474 0.617987 17.707C1.24417 17.9333 1.7674 18.3797 2.08652 18.9635C2.4481 20.1371 3.92675 21.9935 7.18505 21.7874V23.2762H7.18707C7.18707 23.7751 7.59107 24.1812 8.09204 24.1812C8.59098 24.1812 8.997 23.7751 8.997 23.2762V18.4524C9.06568 17.9252 9.29395 17.4323 9.65349 17.0404C9.91003 16.8 10.003 16.4324 9.89186 16.0991C9.78076 15.7638 9.48583 15.5274 9.13639 15.489C5.9811 15.1214 3.06639 14.0831 3.06639 8.98879H3.06437C3.02195 7.74448 3.50271 6.54051 4.3895 5.66787C4.62786 5.40931 4.70866 5.04168 4.59554 4.70633C4.29052 3.82158 4.27032 2.86206 4.53898 1.96516C5.64795 2.21564 6.69233 2.70449 7.59528 3.39733C7.8296 3.55287 8.12249 3.59327 8.39119 3.50641C9.5406 3.15695 10.7385 2.99535 11.9383 3.02565C13.1382 2.99535 14.3341 3.15695 15.4815 3.50641C15.7481 3.5953 16.043 3.55489 16.2774 3.39733C17.148 2.73071 18.1419 2.24792 19.2044 1.97524C19.467 2.88222 19.4448 3.84981 19.1377 4.74268C19.0347 5.04568 19.1014 5.38102 19.3135 5.62138C20.1699 6.53643 20.6548 7.73631 20.673 8.98873C20.673 14.0711 17.6066 15.1275 14.603 15.489C14.2333 15.5294 13.9283 15.792 13.8333 16.1495C13.7364 16.507 13.8697 16.8868 14.1686 17.107C14.4898 17.3494 14.8615 18.0322 14.8615 19.1755V23.2721V23.2701C14.8615 23.7711 15.2655 24.1751 15.7664 24.1751C16.2654 24.1751 16.6714 23.7711 16.6714 23.2701V19.1755C16.6795 18.4544 16.5482 17.7393 16.2836 17.0707C18.7136 16.5535 22.4668 14.9557 22.4668 9.00249L22.4664 9.00285Z" fill="white"/>
</svg>
