<?xml version="1.0" encoding="UTF-8" standalone="no"?><!-- Generator: Gravit.io --><svg xmlns="http://www.w3.org/2000/svg" xmlns:xlink="http://www.w3.org/1999/xlink" style="isolation:isolate" viewBox="0 0 510.24 239.193" width="510.24pt" height="239.193pt"><defs><clipPath id="_clipPath_MrmSZTJQWaf7U8C8CxKAWd9ffypJETaM"><rect x="0" y="0" width="510.24" height="239.193"/></clipPath></defs><g clip-path="url(#_clipPath_MrmSZTJQWaf7U8C8CxKAWd9ffypJETaM)"><g><g><g><path d=" M 9.98 238.893 L 9.98 210.343 L 0 210.343 L 0 203.953 L 27.25 203.953 L 27.25 210.343 L 17.82 210.343 L 17.82 238.893 L 9.98 238.893 Z " fill="rgb(0,148,145)"/><path d=" M 57.14 238.743 C 57.14 238.743 55.99 239.143 53.3 239.143 C 43.22 239.143 46.66 226.363 40.62 226.363 L 39.22 226.363 L 39.22 238.893 L 31.39 238.893 L 31.39 203.953 L 42.62 203.953 C 50.7 203.953 54.8 207.143 54.8 215.183 C 54.8 220.323 51.8 223.023 50.16 224.013 C 52.51 227.153 52.31 232.603 55.8 232.603 L 57.15 232.603 L 57.15 238.743 L 57.14 238.743 Z  M 41.77 220.323 C 44.91 220.323 47.11 218.623 47.11 215.433 C 47.11 212.243 45.31 210.343 42.32 210.343 L 39.22 210.343 L 39.22 220.323 L 41.77 220.323 L 41.77 220.323 Z " fill="rgb(0,148,145)"/><path d=" M 76.99 203.953 L 84.83 203.953 L 84.83 224.413 C 84.83 235.543 79.29 239.183 72.8 239.183 C 66.36 239.183 60.67 235.543 60.72 224.413 L 60.72 203.953 L 68.61 203.953 L 68.61 225.013 C 68.61 228.853 69.36 232.003 72.8 232.003 C 76.29 232.003 76.99 228.863 76.99 225.013 L 76.99 203.953 L 76.99 203.953 Z " fill="rgb(0,148,145)"/><path d=" M 107.58 238.893 L 98.75 219.083 L 98.75 238.893 L 90.92 238.893 L 90.92 203.953 L 98.75 203.953 L 107.58 224.613 L 107.58 203.953 L 115.42 203.953 L 115.42 238.893 L 107.58 238.893 Z " fill="rgb(0,148,145)"/><path d=" M 147.65 238.743 C 147.65 238.743 146.45 239.143 143.81 239.143 C 133.73 239.143 137.17 225.113 131.08 225.113 L 129.63 225.113 L 129.63 238.893 L 121.8 238.893 L 121.8 203.953 L 129.63 203.953 L 129.63 218.723 L 131.23 218.723 C 135.37 218.773 137.47 214.833 137.47 203.953 L 145.26 203.953 C 145.26 214.033 142.77 219.323 139.47 221.573 C 143.66 224.963 142.07 232.603 146.31 232.603 L 147.66 232.603 L 147.66 238.743 L 147.65 238.743 Z " fill="rgb(0,148,145)"/><path d=" M 161.91 238.893 L 161.91 203.953 L 171.49 203.953 C 179.32 203.953 186.71 208.843 186.71 222.073 C 186.71 234.703 179.72 238.893 172.59 238.893 L 161.91 238.893 Z  M 172.59 232.503 C 176.28 232.503 178.98 228.813 178.98 221.973 C 178.98 215.033 177.38 210.343 171.39 210.343 L 169.74 210.343 L 169.74 232.503 L 172.59 232.503 L 172.59 232.503 Z " fill="rgb(0,148,145)"/><path d=" M 207.72 230.603 L 198.39 230.603 L 196.29 238.883 L 188.01 238.883 L 198.99 203.943 L 207.12 203.943 L 218.05 238.893 L 209.86 238.893 L 207.72 230.603 Z  M 200.33 224.613 L 205.82 224.613 L 203.08 213.233 L 200.33 224.613 Z " fill="rgb(0,148,145)"/><path d=" M 226.43 238.893 L 226.43 210.343 L 216.45 210.343 L 216.45 203.953 L 243.7 203.953 L 243.7 210.343 L 234.27 210.343 L 234.27 238.893 L 226.43 238.893 Z " fill="rgb(0,148,145)"/><path d=" M 261.85 230.603 L 252.52 230.603 L 250.42 238.883 L 242.14 238.883 L 253.12 203.943 L 261.25 203.943 L 272.18 238.883 L 263.99 238.883 L 261.85 230.603 Z  M 254.47 224.613 L 259.96 224.613 L 257.22 213.233 L 254.47 224.613 Z " fill="rgb(0,148,145)"/><path d=" M 284.41 238.893 L 284.41 203.953 L 295.49 203.953 C 303.17 203.953 308.07 207.893 308.07 216.183 C 308.07 224.373 302.68 228.063 296.59 228.063 L 292.25 228.063 L 292.25 238.893 L 284.41 238.893 Z  M 295.13 221.723 C 298.32 221.723 300.12 219.823 300.12 216.183 C 300.12 212.783 298.47 210.343 294.88 210.343 L 292.23 210.343 L 292.23 221.723 L 295.13 221.723 Z " fill="rgb(0,148,145)"/><path d=" M 312.45 238.893 L 312.45 203.953 L 320.28 203.953 L 320.28 232.503 L 332.26 232.503 L 332.26 238.893 L 312.45 238.893 Z " fill="rgb(0,148,145)"/><path d=" M 353.21 230.603 L 343.88 230.603 L 341.78 238.883 L 333.5 238.883 L 344.48 203.943 L 352.61 203.943 L 363.54 238.883 L 355.35 238.883 L 353.21 230.603 Z  M 345.83 224.613 L 351.32 224.613 L 348.58 213.233 L 345.83 224.613 Z " fill="rgb(0,148,145)"/><path d=" M 371.92 238.893 L 371.92 210.343 L 361.94 210.343 L 361.94 203.953 L 389.19 203.953 L 389.19 210.343 L 379.76 210.343 L 379.76 238.893 L 371.92 238.893 Z " fill="rgb(0,148,145)"/><path d=" M 393.33 238.893 L 393.33 203.953 L 413.19 203.953 L 413.19 210.343 L 401.16 210.343 L 401.16 218.873 L 409.99 218.873 L 409.99 225.163 L 401.16 225.163 L 401.16 238.883 L 393.33 238.883 L 393.33 238.893 Z " fill="rgb(0,148,145)"/><path d=" M 415.68 221.473 C 415.68 209.593 421.72 203.653 429.6 203.653 C 437.44 203.653 443.48 209.593 443.48 221.473 C 443.48 233.353 437.39 239.193 429.6 239.193 C 421.77 239.193 415.68 233.353 415.68 221.473 Z  M 435.29 221.473 C 435.29 213.493 432.79 210.743 429.6 210.743 C 426.36 210.743 423.86 213.483 423.86 221.473 C 423.86 229.413 426.35 232.303 429.6 232.303 C 432.85 232.303 435.29 229.413 435.29 221.473 Z " fill="rgb(0,148,145)"/><path d=" M 474.31 238.743 C 474.31 238.743 473.16 239.143 470.47 239.143 C 460.39 239.143 463.83 226.363 457.79 226.363 L 456.39 226.363 L 456.39 238.893 L 448.56 238.893 L 448.56 203.953 L 459.79 203.953 C 467.87 203.953 471.97 207.143 471.97 215.183 C 471.97 220.323 468.97 223.023 467.33 224.013 C 469.68 227.153 469.48 232.603 472.97 232.603 L 474.32 232.603 L 474.32 238.743 L 474.31 238.743 Z  M 458.94 220.323 C 462.08 220.323 464.28 218.623 464.28 215.433 C 464.28 212.243 462.48 210.343 459.49 210.343 L 456.39 210.343 L 456.39 220.323 L 458.94 220.323 L 458.94 220.323 Z " fill="rgb(0,148,145)"/><path d=" M 486.33 220.223 L 486.33 238.893 L 478.5 238.893 L 478.5 203.953 L 486.39 203.953 L 494.37 224.513 L 502.75 203.953 L 510.24 203.953 L 510.24 238.893 L 502.41 238.893 L 502.61 219.283 L 496.77 234.653 L 491.48 234.653 L 486.33 220.223 Z " fill="rgb(0,148,145)"/></g></g><path d=" M 69.09 33.833 C 72.86 28.293 77.72 23.553 83.31 19.933 C 77.4 11.433 67.37 4.673 53.86 0.443 C 48.79 -1.147 43.39 1.683 41.81 6.753 C 40.23 11.823 43.05 17.223 48.12 18.803 C 54.99 20.953 65.72 25.543 69.09 33.833 Z " fill="rgb(201,221,222)"/><path d=" M 108.71 20.313 C 92.31 20.313 77.83 30.953 71.69 45.683 C 72.75 46.073 73.8 46.493 74.84 46.963 C 81.37 49.903 86.86 54.193 91.1 59.423 C 92.09 49.773 100.84 42.763 108.72 42.763 C 114.92 42.763 119.94 37.743 119.94 31.543 C 119.94 25.343 114.91 20.313 108.71 20.313 Z " fill="rgb(137,188,188)"/><g><g><path d=" M 404.94 44.703 L 360.23 44.703 L 360.23 68.673 C 349.01 54.113 331.41 44.703 311.65 44.703 L 265.74 44.703 L 264.07 44.703 L 177.01 44.703 L 177.01 72.913 L 207.27 72.913 L 207.27 167.333 L 235.48 167.333 L 235.48 72.913 L 264.07 72.913 L 264.07 106.773 L 292.28 106.773 L 292.28 72.913 L 311.65 72.913 C 329.9 72.913 344.75 87.763 344.75 106.013 C 344.75 124.263 329.9 139.113 311.65 139.113 L 292.43 139.113 L 292.43 167.323 L 311.65 167.323 L 311.65 167.323 C 331.41 167.323 349.01 157.913 360.23 143.353 L 360.23 167.323 L 388.44 167.323 L 388.44 134.803 L 404.94 134.803 C 429.78 134.803 450 114.593 450 89.743 C 450 64.913 429.78 44.703 404.94 44.703 Z  M 404.94 106.603 L 388.44 106.603 L 388.44 72.913 L 404.94 72.913 C 414.23 72.913 421.78 80.473 421.78 89.753 C 421.78 99.043 414.22 106.603 404.94 106.603 Z " fill="rgb(255,255,255)"/><path d=" M 121.54 81.033 C 113.41 98.303 109.44 103.033 103.11 103.033 C 97.31 103.033 92.98 99.543 92.98 96.423 L 64.77 96.423 C 64.77 115.623 81.97 131.253 103.12 131.253 C 129.09 131.253 139.49 109.173 147.08 93.053 C 151.68 83.283 157.01 77.543 164.49 74.843 L 164.49 45.773 C 145.22 49.153 131.09 60.753 121.54 81.033 Z " fill="rgb(255,255,255)"/><path d=" M 177.24 86.953 C 171.96 86.953 167.68 91.233 167.68 96.513 C 167.68 101.793 171.96 106.073 177.24 106.073 C 182.52 106.073 186.8 101.793 186.8 96.513 C 186.8 91.243 182.52 86.953 177.24 86.953 Z " fill="rgb(255,255,255)"/></g></g><g><path d=" M 60.52 78.843 C 62.87 79.903 65.67 82.083 65.67 86.463 L 93.88 86.463 C 93.88 71.933 85.53 59.153 72.08 53.113 C 57.35 46.493 39.85 49.313 27.49 60.293 C 21.66 65.463 21.13 74.383 26.31 80.203 C 31.48 86.033 40.4 86.553 46.22 81.383 C 51.17 76.993 57.02 77.273 60.52 78.843 Z " fill="rgb(0,148,145)"/></g></g></g></svg>