<svg width="578" height="557" viewBox="0 0 578 557" fill="none" xmlns="http://www.w3.org/2000/svg">
<mask id="path-1-inside-1_274_57" fill="white">
<path fill-rule="evenodd" clip-rule="evenodd" d="M494.855 0C357.773 18.0712 235.323 53.5093 137.973 101.144C83.3914 127.852 36.8304 158.32 0 191.626L0 187.598C100.217 98.1072 269.671 29.822 473.094 0L494.855 0Z"/>
</mask>
<path d="M494.855 0L495.247 2.97427L494.855 -3V0ZM137.973 101.144L139.292 103.839L139.292 103.839L137.973 101.144ZM0 191.626L-3 191.626L-3 198.384L2.01217 193.851L0 191.626ZM0 187.598L-1.99819 185.36L-3 186.255L-3 187.598L0 187.598ZM473.094 0V-3L472.876 -3L472.659 -2.96827L473.094 0ZM494.463 -2.97427C357.124 15.1308 234.35 50.6457 136.655 98.4496L139.292 103.839C236.296 56.373 358.422 21.0116 495.247 2.97427L494.463 -2.97427ZM136.655 98.4496C81.8779 125.253 35.0688 155.869 -2.01217 189.401L2.01217 193.851C38.5921 160.772 84.9049 130.452 139.292 103.839L136.655 98.4496ZM3 191.626L3 187.598L-3 187.598L-3 191.626L3 191.626ZM472.659 -2.96827C268.918 26.9002 98.8204 95.332 -1.99819 185.36L1.99819 189.836C101.613 100.883 270.423 32.7437 473.529 2.96827L472.659 -2.96827ZM473.094 3L494.855 3V-3L473.094 -3V3Z" fill="url(#paint0_linear_274_57)" mask="url(#path-1-inside-1_274_57)"/>
<mask id="path-3-inside-2_274_57" fill="white">
<path fill-rule="evenodd" clip-rule="evenodd" d="M577.867 3.29398C571.041 3.13455 564.186 3.0542 557.305 3.0542C303.87 3.0542 87.2336 112.03 0 265.931V272.101C30.0344 217.121 76.6982 167.688 135.89 126.746C243.615 52.2359 392.598 6.0542 557.305 6.0542C564.187 6.0542 571.041 6.13483 577.867 6.29479V3.29398Z"/>
</mask>
<path d="M577.867 3.29398H580.867V0.363229L577.937 0.294796L577.867 3.29398ZM0 265.931L-2.6099 264.452L-3 265.14V265.931H0ZM0 272.101H-3L2.63278 273.539L0 272.101ZM135.89 126.746L137.597 129.214L137.597 129.214L135.89 126.746ZM577.867 6.29479L577.796 9.29396L580.867 9.36592V6.29479H577.867ZM577.937 0.294796C571.088 0.134825 564.21 0.0541992 557.305 0.0541992V6.0542C564.163 6.0542 570.994 6.13428 577.797 6.29316L577.937 0.294796ZM557.305 0.0541992C303.183 0.0541992 85.3257 109.313 -2.6099 264.452L2.6099 267.41C89.1416 114.748 304.556 6.0542 557.305 6.0542V0.0541992ZM3 272.101V265.931H-3V272.101H3ZM134.184 124.279C74.6779 165.438 27.664 215.203 -2.63278 270.663L2.63278 273.539C32.4049 219.039 78.7185 169.938 137.597 129.214L134.184 124.279ZM557.305 3.0542C392.066 3.0542 242.47 49.3802 134.184 124.279L137.597 129.214C244.76 55.0916 393.13 9.0542 557.305 9.0542V3.0542ZM577.937 3.29561C571.088 3.1351 564.21 3.0542 557.305 3.0542V9.0542C564.163 9.0542 570.994 9.13455 577.796 9.29396L577.937 3.29561ZM574.867 3.29398V6.29479H580.867V3.29398H574.867Z" fill="url(#paint1_linear_274_57)" mask="url(#path-3-inside-2_274_57)"/>
<mask id="path-5-inside-3_274_57" fill="white">
<path fill-rule="evenodd" clip-rule="evenodd" d="M274.399 0C146.948 88.6178 63.3397 237.277 63.3397 405.747C63.3397 458.213 71.4482 508.756 86.4643 556.164H82.9855C68.0708 508.729 60.0218 458.19 60.0218 405.747C60.0218 237.881 142.491 89.5279 268.625 0L274.399 0Z"/>
</mask>
<path d="M274.399 0L276.293 2.72409L284.983 -3.31786L274.399 -3.31786V0ZM86.4643 556.164V559.482H90.9955L89.6273 555.162L86.4643 556.164ZM82.9855 556.164L79.8204 557.159L80.5507 559.482H82.9855V556.164ZM268.625 0V-3.31786L267.567 -3.31786L266.705 -2.7056L268.625 0ZM272.505 -2.72409C144.19 86.4941 60.0218 236.156 60.0218 405.747H66.6575C66.6575 238.397 149.705 90.7416 276.293 2.72409L272.505 -2.72409ZM60.0218 405.747C60.0218 458.556 68.1837 509.438 83.3013 557.166L89.6273 555.162C74.7127 508.075 66.6575 457.869 66.6575 405.747H60.0218ZM86.4643 552.846H82.9855V559.482H86.4643V552.846ZM56.7039 405.747C56.7039 458.531 64.8055 509.405 79.8204 557.159L86.1505 555.169C71.336 508.052 63.3397 457.849 63.3397 405.747H56.7039ZM266.705 -2.7056C139.723 87.4244 56.7039 236.772 56.7039 405.747H63.3397C63.3397 238.99 145.26 91.6313 270.545 2.7056L266.705 -2.7056ZM268.625 3.31786L274.399 3.31786V-3.31786L268.625 -3.31786V3.31786Z" fill="url(#paint2_linear_274_57)" mask="url(#path-5-inside-3_274_57)"/>
<defs>
<linearGradient id="paint0_linear_274_57" x1="-150.254" y1="277.702" x2="115.547" y2="-364.775" gradientUnits="userSpaceOnUse">
<stop stop-color="#B6D9E8"/>
<stop offset="1" stop-opacity="0"/>
</linearGradient>
<linearGradient id="paint1_linear_274_57" x1="-548.696" y1="507.108" x2="-121.711" y2="-353.518" gradientUnits="userSpaceOnUse">
<stop stop-color="#B6D9E8"/>
<stop offset="0.9982" stop-color="#B6D9E8" stop-opacity="0"/>
</linearGradient>
<linearGradient id="paint2_linear_274_57" x1="2.68311" y1="745.905" x2="709.05" y2="441.838" gradientUnits="userSpaceOnUse">
<stop stop-color="#B6D9E8"/>
<stop offset="1" stop-opacity="0"/>
</linearGradient>
</defs>
</svg>
