<svg width="127" height="119" viewBox="0 0 127 119" fill="none" xmlns="http://www.w3.org/2000/svg">
<path d="M47.1826 47.131L47.0865 47.2203C44.6391 49.4981 44.6391 53.1852 47.0865 55.4631L50.9125 59.0163C51.7461 59.7954 53.098 59.7954 53.9315 59.0163C54.7651 58.2421 54.7651 56.9865 53.9315 56.2125L50.1055 52.6593H50.1108C49.3253 51.9298 49.3253 50.7537 50.1108 50.0242L50.207 49.9349L50.3673 50.0838L50.362 50.0887C51.1956 50.8629 52.5529 50.8629 53.3864 50.0887C54.2199 49.3146 54.22 48.0541 53.3864 47.28L53.2261 47.1311L53.3223 47.0418L53.3169 47.0468C54.1131 46.3421 55.3582 46.3421 56.1543 47.0468L59.9803 50.6V50.595C60.8139 51.3691 62.1659 51.3691 62.9993 50.595C63.8383 49.8208 63.8383 48.5653 62.9993 47.7912L59.1733 44.238C56.726 41.9602 52.7504 41.9602 50.2977 44.238L50.2015 44.3273L47.6848 41.9901C48.0535 41.5931 48.4169 41.1861 48.7589 40.7742C50.1641 39.1068 49.8863 36.705 48.1337 35.3552L47.8825 35.1617C51.11 29.4498 51.655 22.7505 49.3895 16.6519C47.1292 10.553 42.2559 5.5905 35.9237 2.93536C29.5916 0.280469 22.3618 0.171214 15.9394 2.62768C11.344 4.4192 7.42181 7.42142 4.65391 11.2724C1.88602 15.1183 0.400434 19.6391 0.379094 24.2648C0.373751 32.4628 4.99056 40.0661 12.5516 44.2991C20.1073 48.537 29.5018 48.7951 37.3086 44.974L37.5223 45.2122C38.3132 46.1054 39.4994 46.6265 40.7499 46.6216C41.6903 46.6216 42.6095 46.3288 43.3574 45.7928C43.801 45.4752 44.2338 45.1378 44.6666 44.7953L47.1826 47.131ZM14.1865 34.8637C10.0025 30.9781 8.44758 25.2761 10.1362 20.0114C11.8248 14.7463 16.4842 10.7663 22.2767 9.63478C28.0637 8.50829 34.0538 10.4189 37.8739 14.6122C41.6999 18.8006 42.7419 24.6018 40.5938 29.7237C39.8617 29.3813 39.0389 29.2473 38.2213 29.3366C37.0724 29.4755 36.0357 30.0413 35.3517 30.9097C34.6143 31.8377 33.7273 32.6615 32.7227 33.3464C31.7929 33.9816 31.1837 34.9443 31.0394 36.0063C30.9432 36.7656 31.0875 37.5298 31.4562 38.2097C25.4928 40.3634 18.7226 39.0533 14.1859 34.865L14.1865 34.8637ZM43.2074 40.6401C42.4326 41.3597 41.6096 42.0346 40.8188 42.6797L35.2562 36.5461C35.9349 36.0846 36.5707 35.5735 37.1692 35.0226C37.757 34.5016 38.2646 33.9061 38.6708 33.256L45.3555 38.3773V38.3723C44.6929 39.1713 43.9769 39.9305 43.2074 40.6401ZM119.604 78.4943C115.805 74.966 110.884 72.6583 105.572 71.9091C100.255 71.1597 94.8207 72.0133 90.0649 74.3358L89.8565 74.1026C88.4031 72.4749 85.8168 72.2168 84.0214 73.5219C83.5779 73.8395 83.1451 74.177 82.7122 74.5194L80.0672 72.063L80.1634 71.9736C82.6108 69.6958 82.6108 66.0087 80.1634 63.7309L76.3374 60.1777C75.5038 59.4035 74.1518 59.4035 73.3183 60.1777C72.4794 60.9518 72.4794 62.2074 73.3183 62.9815L77.1443 66.5347C77.9245 67.2641 77.9245 68.4403 77.1443 69.1697L77.0481 69.259L77.0161 69.2293V69.2243C76.6153 68.8521 76.0703 68.6437 75.5038 68.6437C74.9374 68.6387 74.3924 68.8521 73.9916 69.2243C73.5908 69.5965 73.361 70.1027 73.361 70.6287C73.3664 71.1548 73.5908 71.6609 73.9916 72.0332L74.0236 72.0629L73.9274 72.1523H73.9328C73.1366 72.852 71.8915 72.852 71.0954 72.1523L67.2694 68.5991C66.874 68.2219 66.3236 68.0036 65.7571 68.0036C65.1854 68.0036 64.6403 68.212 64.2342 68.5842C63.8334 68.9614 63.609 69.4675 63.609 69.9985C63.6144 70.5246 63.8441 71.0307 64.2502 71.403L68.0762 74.9562C70.529 77.234 74.4991 77.234 76.9519 74.9562L77.048 74.8668L79.6931 77.3233C79.3244 77.7203 78.961 78.1272 78.619 78.5391C77.2138 80.2065 77.4916 82.6083 79.2442 83.9581L79.4954 84.1517C76.2678 89.8635 75.7229 96.5629 77.9884 102.661C80.2487 108.76 85.122 113.723 91.4542 116.378C97.7863 119.033 105.016 119.142 111.438 116.686C119.219 113.693 124.877 107.287 126.517 99.6191C128.158 91.947 125.561 84.0223 119.603 78.4935L119.604 78.4943ZM84.1718 78.673C84.9466 77.9534 85.7696 77.2784 86.5604 76.6333L92.123 82.767C91.4443 83.2285 90.8084 83.7396 90.21 84.2904C89.6222 84.8115 89.1146 85.407 88.7084 86.0571L82.0237 80.9358V80.9408C82.6863 80.1418 83.4023 79.3826 84.1718 78.673ZM113.193 105.63C107.796 110.632 99.3642 111.436 92.9786 107.56C86.5984 103.684 84.0175 96.186 86.7855 89.5864C87.5176 89.9387 88.3405 90.0727 89.1581 89.9784C90.3069 89.8394 91.3436 89.2737 92.0276 88.4053C92.765 87.4773 93.652 86.6535 94.6567 85.9686C95.5864 85.3334 96.1956 84.3707 96.3399 83.3087C96.4361 82.5494 96.2918 81.7852 95.9231 81.1053C103.03 78.5397 111.094 80.9415 115.267 86.8668C119.441 92.7871 118.575 100.618 113.194 105.631L113.193 105.63ZM65.3735 64.0239L59.2338 58.3269C58.4002 57.5478 58.4002 56.2923 59.2338 55.5182C60.0674 54.7441 61.4194 54.7441 62.2582 55.5182L68.3979 61.2202H68.3926C69.2315 61.9943 69.2315 63.2499 68.3926 64.0239C67.559 64.8031 66.207 64.8031 65.3735 64.0239ZM57.6094 66.0834V68.0337C57.6094 68.4406 57.2514 68.7781 56.8078 68.7781C56.3697 68.7781 56.0063 68.4406 56.0063 68.0337V67.87L55.8781 67.9891C55.5681 68.2769 55.0552 68.2769 54.7452 67.9891C54.43 67.6963 54.43 67.2248 54.7452 66.932L54.9002 66.7881H54.6758V66.7931C54.2323 66.7931 53.8742 66.4556 53.8742 66.0487C53.8742 65.6368 54.2323 65.3043 54.6758 65.3043H56.8132C57.0269 65.3043 57.23 65.3837 57.3796 65.5227L57.3903 65.5276L57.401 65.5525C57.5239 65.6815 57.5987 65.8403 57.604 66.014C57.6094 66.0338 57.6094 66.0586 57.6094 66.0834ZM52.4422 70.1229C52.5919 70.2619 52.6774 70.4504 52.6774 70.6489C52.6827 70.8425 52.5972 71.036 52.4476 71.1749L50.1605 73.2989C49.8453 73.5818 49.343 73.5818 49.033 73.294C48.7231 73.0061 48.7178 72.5397 49.0224 72.2518L51.3094 70.1229C51.459 69.9839 51.6621 69.9045 51.8758 69.9045C52.0896 69.9045 52.2926 69.9839 52.4422 70.1229ZM46.7247 75.4378C47.0346 75.7305 47.0346 76.197 46.7247 76.4898L45.2124 77.8942C44.8971 78.187 44.3895 78.187 44.0742 77.8942C43.7643 77.6014 43.7643 77.13 44.0742 76.8372L45.5865 75.4328V75.4377C45.9018 75.145 46.4094 75.145 46.7247 75.4378ZM80.9506 43.6523C80.6353 43.3595 80.6353 42.888 80.9506 42.5953L82.4628 41.1908H82.4575C82.7728 40.903 83.2804 40.903 83.5957 41.1908C83.9109 41.4836 83.9109 41.955 83.5957 42.2478L82.0834 43.6523C81.7681 43.9401 81.2605 43.9401 80.9506 43.6523ZM75.2276 48.9622C74.9177 48.6694 74.9177 48.1979 75.2276 47.9052L77.5147 45.7812H77.52C77.83 45.4933 78.3376 45.4933 78.6529 45.7812C78.9681 46.074 78.9681 46.5454 78.6529 46.8382L76.3658 48.9622C76.0505 49.25 75.5429 49.25 75.2276 48.9622ZM40.0618 66.0478C40.0618 66.4547 39.7038 66.7872 39.2603 66.7922H37.1229C36.6794 66.7922 36.3214 66.4547 36.3214 66.0478C36.3214 65.6359 36.6794 65.3034 37.1229 65.3034H39.2603C39.7038 65.3034 40.0618 65.6359 40.0618 66.0478ZM48.8893 65.3034H48.8946C49.3381 65.3034 49.6962 65.6359 49.6962 66.0478C49.6962 66.4547 49.3381 66.7922 48.8946 66.7922H45.042C44.5984 66.7922 44.2404 66.4547 44.2404 66.0478C44.2404 65.6359 44.5984 65.3034 45.042 65.3034H48.8893ZM57.6099 73.4023V76.9802V76.9753C57.6099 77.3872 57.2519 77.7196 56.8084 77.7196C56.3702 77.7196 56.0069 77.3872 56.0069 76.9753V73.3973C56.0069 72.9854 56.3702 72.6529 56.8084 72.6529C57.2519 72.6529 57.6099 72.9854 57.6099 73.3973V73.4023ZM57.6099 82.3497V84.3347V84.3298C57.6099 84.7416 57.2519 85.0741 56.8084 85.0741C56.3702 85.0741 56.0069 84.7416 56.0069 84.3298V82.3448C56.0069 81.9329 56.3702 81.6004 56.8084 81.6004C57.2519 81.6004 57.6099 81.9329 57.6099 82.3448V82.3497ZM87.5925 53.011C87.5925 52.5991 87.9558 52.2666 88.394 52.2666H90.5314C90.9749 52.2666 91.3329 52.5991 91.3329 53.011C91.3329 53.4229 90.9749 53.7554 90.5314 53.7554H88.394C87.9558 53.7554 87.5925 53.4229 87.5925 53.011ZM82.6123 52.2666C83.0559 52.2666 83.4139 52.5991 83.4139 53.011C83.4139 53.4229 83.0559 53.7554 82.6123 53.7554H78.7597C78.3162 53.7554 77.9581 53.4229 77.9581 53.011C77.9581 52.5991 78.3162 52.2666 78.7597 52.2666H82.6123ZM70.039 53.011V51.026H70.0444C70.0444 50.6141 70.4024 50.2816 70.8459 50.2816C71.2894 50.2816 71.6474 50.6141 71.6474 51.026V51.2394L71.8024 51.0955C71.952 50.9516 72.1551 50.8722 72.3742 50.8672C72.5879 50.8672 72.791 50.9466 72.9459 51.0856C73.0955 51.2295 73.181 51.423 73.1757 51.6215C73.1757 51.82 73.0902 52.0086 72.9352 52.1476L72.807 52.2667H72.9833C73.4269 52.2667 73.7849 52.5991 73.7849 53.011C73.7849 53.4229 73.4269 53.7554 72.9833 53.7554H70.8887C70.8781 53.7554 70.8674 53.7653 70.8567 53.7653C70.8407 53.7653 70.8246 53.7455 70.8086 53.7455L70.8032 53.7505C70.6216 53.7405 70.4452 53.676 70.3063 53.5569L70.2849 53.547L70.2796 53.542H70.2849C70.13 53.4031 70.0445 53.2145 70.0445 53.011L70.039 53.011ZM70.039 45.6565L70.0444 42.0835C70.0444 41.6716 70.4024 41.3391 70.8459 41.3391C71.2894 41.3391 71.6474 41.6716 71.6474 42.0835V45.6615C71.6474 46.0734 71.2894 46.4059 70.8459 46.4059C70.4024 46.4059 70.0444 46.0734 70.0444 45.6615L70.039 45.6565ZM70.039 36.7091V34.7241L70.0444 34.729C70.0444 34.3172 70.4024 33.9847 70.8459 33.9847C71.2894 33.9847 71.6474 34.3172 71.6474 34.729V36.714C71.6474 37.121 71.2894 37.4584 70.8459 37.4584C70.4024 37.4584 70.0444 37.121 70.0444 36.714L70.039 36.7091Z" fill="#009491"/>
</svg>
