<svg width="110" height="127" viewBox="0 0 110 127" fill="none" xmlns="http://www.w3.org/2000/svg">
<path d="M109.864 124.036V105.771C109.864 105.063 109.583 104.386 109.083 103.886C108.583 103.386 107.906 103.104 107.197 103.104H98.6661V99.1043C98.6661 96.271 97.5411 93.5627 95.5411 91.5574C93.5411 89.5574 90.8275 88.4377 87.9995 88.4377H57.9995V79.9013H69.5984C70.3067 79.9013 70.9839 79.62 71.4839 79.12C71.9839 78.62 72.2651 77.9429 72.2651 77.2345V70.0367H85.1974C90.6089 70.0367 95.7963 67.8856 99.6241 64.0627C103.452 60.2345 105.598 55.0471 105.598 49.636C105.614 44.2245 103.452 39.0371 99.5981 35.2347C98.1866 33.8076 96.5669 32.594 94.8011 31.6357C93.1605 27.0264 90.1449 23.0368 86.1605 20.1983C82.1813 17.3597 77.4209 15.8128 72.5298 15.7712H69.7328C65.5298 8.08894 58.1131 2.68788 49.5142 1.03654C40.9153 -0.609324 32.0302 1.67196 25.2902 7.25534C18.5454 12.8439 14.6495 21.146 14.6651 29.9007V32.3017C8.68592 36.0309 5.05578 42.5881 5.06618 49.6351C5.03493 55.0517 7.19645 60.2444 11.0662 64.0364C14.8631 67.8905 20.0558 70.052 25.4675 70.0364H38.3998V77.2343C38.3998 77.9426 38.681 78.6198 39.181 79.1198C39.681 79.6198 40.3581 79.901 41.0665 79.901H52.6654V88.4322L22.6654 88.4374C16.7748 88.4374 11.9988 93.2134 11.9988 99.1041V103.104H3.46757C1.99357 103.104 0.800903 104.297 0.800903 105.771V124.036C0.800903 124.744 1.08216 125.422 1.58216 125.922C2.08216 126.422 2.75924 126.703 3.46762 126.703H25.4676C26.1707 126.703 26.8531 126.422 27.3531 125.922C27.8531 125.422 28.1343 124.744 28.1343 124.036V105.771C28.1343 105.062 27.8531 104.385 27.3531 103.885C26.8531 103.385 26.1708 103.104 25.4676 103.104H17.3322V99.104C17.3322 96.1562 19.7176 93.7707 22.6655 93.7707H52.6655V103.104H44.3999C42.9259 103.104 41.7332 104.297 41.7332 105.771V124.036C41.7332 124.744 42.0145 125.421 42.5145 125.921C43.0145 126.421 43.6916 126.703 44.3999 126.703H66.2639C66.9723 126.703 67.6494 126.421 68.1494 125.921C68.6494 125.421 68.9307 124.744 68.9307 124.036V105.771C68.9307 105.062 68.6494 104.385 68.1494 103.885C67.6494 103.385 66.9723 103.104 66.2639 103.104H57.9983V93.7706H87.9983C89.415 93.7706 90.7691 94.3279 91.7691 95.3332C92.7691 96.3332 93.3317 97.6873 93.3317 99.104V103.104H85.1962C83.7274 103.104 82.5295 104.297 82.5295 105.771V124.036C82.5295 124.744 82.8108 125.421 83.3108 125.921C83.8108 126.421 84.4931 126.703 85.1963 126.703H107.196C107.905 126.703 108.582 126.421 109.082 125.921C109.582 125.421 109.864 124.745 109.864 124.036ZM38.4001 54.0364V64.703H25.4678C17.1449 64.703 10.3998 57.9583 10.3998 49.6351C10.3842 43.9059 13.6498 38.6767 18.8008 36.1657C19.7904 35.598 20.3634 34.5095 20.2645 33.3688C20.0405 32.2282 19.9519 31.0615 19.9988 29.9C19.9988 23.5355 22.5248 17.4312 27.03 12.9306C31.53 8.43065 37.6342 5.89945 43.9994 5.89945C48.5931 5.94112 53.0827 7.27438 56.9472 9.74838C60.817 12.2276 63.9108 15.7432 65.8639 19.8994C66.3014 21.0922 67.5566 21.7797 68.8014 21.4984C70.0253 21.2275 71.2754 21.0973 72.5306 21.1025C80.6243 21.1807 87.7132 26.54 89.9999 34.3004C90.2655 35.0035 90.7916 35.5765 91.4687 35.8993C93.0624 36.7223 94.5468 37.7535 95.8646 38.9671C98.6667 41.816 100.245 45.6389 100.266 49.6337C100.266 57.9567 93.5208 64.7017 85.1976 64.7017H72.2654V54.0351C72.2654 53.3267 71.9841 52.6496 71.4841 52.1496C70.9841 51.6496 70.307 51.3684 69.5986 51.3684H41.068C39.594 51.3684 38.4013 52.5611 38.4013 54.035L38.4001 54.0364ZM43.7334 56.703H66.9307V74.5671H43.7334V56.703ZM22.8014 121.37H6.13472V108.437H22.8014V121.37ZM63.604 121.37H47.0681V108.437H63.5987L63.604 121.37ZM104.536 121.37H87.8641V108.437H104.531L104.536 121.37Z" fill="#009491"/>
</svg>
