<svg width="463" height="217" viewBox="0 0 463 217" fill="none" xmlns="http://www.w3.org/2000/svg">
<mask id="mask0_4_88" style="mask-type:luminance" maskUnits="userSpaceOnUse" x="0" y="0" width="463" height="217">
<path d="M462.967 0.864235H0.417694V216.406H462.967V0.864235Z" fill="white"/>
</mask>
<g mask="url(#mask0_4_88)">
<path d="M9.46489 216.136V190.409H0.417694V184.651H25.1207V190.409H16.5721V216.136H9.46489Z" fill="#009491"/>
<path d="M52.217 216.001C52.217 216.001 51.1745 216.361 48.7359 216.361C39.598 216.361 42.7165 204.845 37.241 204.845H35.9719V216.136H28.8737V184.651H39.0541C46.3789 184.651 50.0957 187.525 50.0957 194.77C50.0957 199.402 47.3761 201.835 45.8894 202.727C48.0197 205.557 47.8384 210.468 51.0022 210.468H52.226V216.001H52.217ZM38.2836 199.402C41.1301 199.402 43.1244 197.87 43.1244 194.995C43.1244 192.121 41.4927 190.409 38.7822 190.409H35.9719V199.402H38.2836Z" fill="#009491"/>
<path d="M70.2116 184.651H77.3188V203.087C77.3188 213.117 72.2966 216.397 66.4132 216.397C60.5752 216.397 55.417 213.117 55.4623 203.087V184.651H62.6149V203.628C62.6149 207.088 63.2948 209.927 66.4132 209.927C69.577 209.927 70.2116 207.097 70.2116 203.628V184.651Z" fill="#009491"/>
<path d="M97.9425 216.136L89.9378 198.284V216.136H82.8397V184.651H89.9378L97.9425 203.268V184.651H105.05V216.136H97.9425Z" fill="#009491"/>
<path d="M134.267 216.001C134.267 216.001 133.179 216.361 130.786 216.361C121.648 216.361 124.767 203.718 119.246 203.718H117.932V216.136H110.833V184.651H117.932V197.96H119.382C123.135 198.005 125.039 194.455 125.039 184.651H132.101C132.101 193.734 129.843 198.501 126.852 200.528C130.65 203.583 129.209 210.468 133.052 210.468H134.276V216.001H134.267Z" fill="#009491"/>
<path d="M147.194 216.136V184.651H155.879C162.977 184.651 169.676 189.057 169.676 200.979C169.676 212.36 163.34 216.136 156.876 216.136H147.194ZM156.876 210.378C160.221 210.378 162.669 207.052 162.669 200.889C162.669 194.635 161.219 190.409 155.788 190.409H154.293V210.378H156.876Z" fill="#009491"/>
<path d="M188.723 208.665H180.265L178.361 216.127H170.855L180.809 184.642H188.179L198.087 216.136H190.663L188.723 208.665ZM182.023 203.268H187L184.516 193.013L182.023 203.268Z" fill="#009491"/>
<path d="M205.684 216.136V190.409H196.637V184.651H221.34V190.409H212.791V216.136H205.684Z" fill="#009491"/>
<path d="M237.793 208.665H229.335L227.432 216.127H219.926L229.879 184.642H237.249L247.158 216.127H239.733L237.793 208.665ZM231.103 203.268H236.08L233.596 193.013L231.103 203.268Z" fill="#009491"/>
<path d="M258.245 216.136V184.651H268.289C275.251 184.651 279.693 188.201 279.693 195.671C279.693 203.051 274.807 206.377 269.286 206.377H265.352V216.136H258.245ZM267.963 200.663C270.855 200.663 272.486 198.951 272.486 195.671C272.486 192.607 270.991 190.409 267.736 190.409H265.334V200.663H267.963Z" fill="#009491"/>
<path d="M283.664 216.136V184.651H290.762V210.378H301.622V216.136H283.664Z" fill="#009491"/>
<path d="M320.614 208.665H312.156L310.252 216.127H302.746L312.7 184.642H320.07L329.979 216.127H322.554L320.614 208.665ZM313.924 203.268H318.901L316.417 193.013L313.924 203.268Z" fill="#009491"/>
<path d="M337.575 216.136V190.409H328.528V184.651H353.231V190.409H344.683V216.136H337.575Z" fill="#009491"/>
<path d="M356.984 216.136V184.651H374.988V190.409H364.082V198.095H372.087V203.763H364.082V216.127H356.984V216.136Z" fill="#009491"/>
<path d="M377.245 200.438C377.245 189.733 382.721 184.38 389.864 184.38C396.971 184.38 402.447 189.733 402.447 200.438C402.447 211.143 396.926 216.406 389.864 216.406C382.766 216.406 377.245 211.143 377.245 200.438ZM395.022 200.438C395.022 193.247 392.756 190.769 389.864 190.769C386.927 190.769 384.661 193.238 384.661 200.438C384.661 207.593 386.918 210.197 389.864 210.197C392.81 210.197 395.022 207.593 395.022 200.438Z" fill="#009491"/>
<path d="M430.395 216.001C430.395 216.001 429.353 216.361 426.914 216.361C417.776 216.361 420.895 204.845 415.419 204.845H414.15V216.136H407.052V184.651H417.232C424.557 184.651 428.274 187.525 428.274 194.77C428.274 199.402 425.554 201.835 424.068 202.727C426.198 205.557 426.017 210.468 429.18 210.468H430.404V216.001H430.395ZM416.462 199.402C419.308 199.402 421.303 197.87 421.303 194.995C421.303 192.121 419.671 190.409 416.96 190.409H414.15V199.402H416.462Z" fill="#009491"/>
<path d="M441.292 199.312V216.136H434.194V184.651H441.346L448.58 203.178L456.177 184.651H462.967V216.136H455.869L456.05 198.465L450.756 212.315H445.96L441.292 199.312Z" fill="#009491"/>
<path d="M367.509 41.147H326.978V62.7469C316.807 49.6266 300.852 41.147 282.939 41.147H241.32H239.806H160.883V66.5676H188.315V151.651H213.888V66.5676H239.806V97.0796H265.379V66.5676H282.939C299.483 66.5676 312.945 79.9493 312.945 96.3947C312.945 112.84 299.483 126.222 282.939 126.222H265.515V151.642H282.939C300.852 151.642 316.807 143.163 326.978 130.043V151.642H352.551V122.338H367.509C390.027 122.338 408.357 104.126 408.357 81.7335C408.357 59.3587 390.027 41.147 367.509 41.147ZM367.509 96.9264H352.551V66.5676H367.509C375.931 66.5676 382.775 73.3801 382.775 81.7425C382.775 90.1139 375.922 96.9264 367.509 96.9264Z" fill="white"/>
<path d="M110.598 73.8847C103.228 89.4471 99.6287 93.7094 93.8903 93.7094C88.6324 93.7094 84.7071 90.5645 84.7071 87.753H59.1339C59.1339 105.054 74.7262 119.139 93.8994 119.139C117.442 119.139 126.87 99.2422 133.751 84.7162C137.921 75.9122 142.752 70.7398 149.533 68.3068V42.1112C132.064 45.157 119.255 55.61 110.598 73.8847Z" fill="white"/>
<path d="M161.092 79.2194C156.305 79.2194 152.425 83.0762 152.425 87.8341C152.425 92.592 156.305 96.4488 161.092 96.4488C165.878 96.4488 169.758 92.592 169.758 87.8341C169.758 83.0852 165.878 79.2194 161.092 79.2194Z" fill="#fff"/>
<path d="M63.05 31.3518C66.4677 26.3596 70.8734 22.0883 75.9409 18.8263C70.5833 11.1667 61.4908 5.07517 49.2435 1.26343C44.6474 -0.169347 39.7521 2.38082 38.3198 6.9495C36.8875 11.5182 39.4439 16.3842 44.04 17.808C50.2679 19.7454 59.995 23.8816 63.05 31.3518Z" fill="#C9DDDE"/>
<path d="M98.9669 19.1687C84.0997 19.1687 70.9731 28.7566 65.407 42.0301C66.3679 42.3815 67.3198 42.76 68.2626 43.1835C74.1822 45.8328 79.1591 49.6986 83.0028 54.4115C83.9003 45.7157 91.8324 39.3988 98.9759 39.3988C104.596 39.3988 109.147 34.8752 109.147 29.2883C109.147 23.7013 104.587 19.1687 98.9669 19.1687Z" fill="#89BCBC"/>
<path d="M55.2811 71.9113C57.4114 72.8664 59.9497 74.8309 59.9497 78.7778H85.523C85.523 65.6845 77.9534 54.1682 65.7606 48.7254C52.4073 42.76 36.543 45.3012 25.3383 55.1955C20.0532 59.8543 19.5727 67.8923 24.2686 73.1368C28.9553 78.3903 37.0416 78.8589 42.3176 74.2001C46.805 70.2442 52.1082 70.4965 55.2811 71.9113Z" fill="#009491"/>
</g>
</svg>
