<svg width="394" height="423" viewBox="0 0 394 423" fill="none" xmlns="http://www.w3.org/2000/svg">
<path fill-rule="evenodd" clip-rule="evenodd" d="M255.907 368.198C255.907 258.839 287.491 159.959 338.403 88.4953C355.033 65.1518 373.707 44.7549 394 27.8702V23.984C393.359 24.5077 392.72 25.0348 392.082 25.5653C391.721 25.866 391.36 26.1677 391 26.4705C372.567 41.9635 355.492 60.3116 340.085 81.0796C338.696 82.9517 337.321 84.8434 335.959 86.7546C284.646 158.782 252.907 258.287 252.907 368.198C252.907 386.501 253.787 404.516 255.492 422.164H258.506C258.496 422.068 258.487 421.971 258.478 421.875C258.391 420.972 258.305 420.069 258.223 419.164C256.695 402.48 255.907 385.469 255.907 368.198Z" fill="url(#paint0_linear_274_52)" fill-opacity="0.5"/>
<path fill-rule="evenodd" clip-rule="evenodd" d="M129.892 396.802C129.889 397.562 129.887 398.322 129.887 399.082C129.887 400.667 129.895 402.25 129.91 403.831C129.961 408.969 130.093 414.08 130.305 419.164C130.345 420.117 130.388 421.069 130.433 422.02C130.436 422.068 130.438 422.116 130.44 422.164H127.438C127.075 414.591 126.89 406.956 126.887 399.265C126.887 399.204 126.887 399.143 126.887 399.082C126.887 284.775 167.234 182.669 230.495 115.335C274.766 68.2133 330.259 38.1215 391 32.7954C391.999 32.7079 392.999 32.627 394 32.5529L394 35.5612L394 35.5631C247.871 46.5626 130.805 203.199 129.892 396.802Z" fill="url(#paint1_linear_274_52)"/>
<path fill-rule="evenodd" clip-rule="evenodd" d="M375.767 89.1675C373.752 89.1289 371.733 89.1095 369.71 89.1095C192.364 89.1095 48.417 238.121 48.4168 422.164H45.4168C45.4168 421.163 45.421 420.163 45.4295 419.164C46.9842 234.947 191.574 86.1095 369.71 86.1095C369.825 86.1095 369.94 86.1096 370.056 86.1097C378.109 86.1184 386.094 86.4313 394 87.038L394 87.0385L394 90.0474C393.001 89.97 392.001 89.8973 391 89.8294C385.953 89.487 380.874 89.2654 375.767 89.1675Z" fill="url(#paint2_linear_274_52)"/>
<path fill-rule="evenodd" clip-rule="evenodd" d="M386 129.58L386 126.554C374.909 125.096 363.653 124.172 352.257 123.809H330.162C326.622 123.922 323.096 124.089 319.583 124.309C305.411 125.197 291.469 126.953 277.811 129.525C134.794 156.453 22.7934 272.811 0.475733 419.164C0.323451 420.163 0.175345 421.163 0.0314331 422.164H3.06253C8.9781 381.359 21.9175 342.87 40.5957 307.997C96.8184 203.027 205.038 130.818 330.212 126.809C333.863 126.692 337.53 126.633 341.21 126.633C344.889 126.633 348.556 126.692 352.208 126.809C362.595 127.142 372.866 127.944 383 129.196C384.001 129.319 385.001 129.448 386 129.58Z" fill="url(#paint3_linear_274_52)"/>
<path fill-rule="evenodd" clip-rule="evenodd" d="M326.721 422.164H328.863C340.98 390.864 348.127 357.495 349.46 322.81C349.611 318.865 349.688 314.904 349.688 310.927C349.688 216.908 306.987 131.79 237.949 70.1759C230.061 63.1362 221.83 56.4036 213.279 49.9999C189.186 31.9554 162.557 16.5197 133.938 4.18016H127.789C129.744 4.98846 131.689 5.81113 133.626 6.64803C172.123 23.2834 206.981 45.5391 236.861 72.2056C305.549 133.506 347.775 217.948 347.775 310.927C347.775 314.842 347.7 318.741 347.552 322.624C346.258 356.452 339.373 389.05 327.675 419.696C327.361 420.52 327.043 421.343 326.721 422.164Z" fill="url(#paint4_linear_274_52)"/>
<path fill-rule="evenodd" clip-rule="evenodd" d="M212.68 422.164H215.147C225.723 386.169 231.429 347.82 231.429 308.03C231.429 291.945 230.497 276.096 228.687 260.543C219.542 181.943 187.997 110.912 141.206 55.199C139.678 53.3796 138.133 51.5766 136.573 49.7901C120.498 31.3844 102.723 14.7411 83.5203 0.155518H79.4263C80.5447 0.987737 81.6584 1.82694 82.7673 2.67305C102.103 17.427 119.975 34.2853 136.099 52.941C182.227 106.314 214.052 174.396 224.94 250.002C227.663 268.912 229.077 288.292 229.077 308.03C229.077 346.915 223.592 384.407 213.416 419.647C213.246 420.235 213.075 420.822 212.903 421.409C212.829 421.661 212.755 421.913 212.68 422.164Z" fill="url(#paint5_linear_274_52)"/>
<defs>
<linearGradient id="paint0_linear_274_52" x1="241.754" y1="469.7" x2="583.555" y2="324.981" gradientUnits="userSpaceOnUse">
<stop stop-color="#B6D9E8"/>
<stop offset="1" stop-opacity="0"/>
</linearGradient>
<linearGradient id="paint1_linear_274_52" x1="52.5952" y1="570.316" x2="688.724" y2="104.738" gradientUnits="userSpaceOnUse">
<stop stop-color="#B6D9E8"/>
<stop offset="1" stop-opacity="0"/>
</linearGradient>
<linearGradient id="paint2_linear_274_52" x1="-15.8241" y1="544.827" x2="500.756" y2="-80.3339" gradientUnits="userSpaceOnUse">
<stop stop-color="#B6D9E8"/>
<stop offset="1" stop-opacity="0"/>
</linearGradient>
<linearGradient id="paint3_linear_274_52" x1="-127.124" y1="531.411" x2="370.213" y2="-155.217" gradientUnits="userSpaceOnUse">
<stop stop-color="#B6D9E8"/>
<stop offset="1" stop-opacity="0"/>
</linearGradient>
<linearGradient id="paint4_linear_274_52" x1="380.091" y1="565.771" x2="310.269" y2="-0.817479" gradientUnits="userSpaceOnUse">
<stop stop-color="#B6D9E8" stop-opacity="0.33"/>
<stop offset="0.833333" stop-opacity="0"/>
</linearGradient>
<linearGradient id="paint5_linear_274_52" x1="260.628" y1="480.628" x2="454.092" y2="160.606" gradientUnits="userSpaceOnUse">
<stop stop-color="#B6D9E8" stop-opacity="0.25"/>
<stop offset="0.802083" stop-opacity="0"/>
</linearGradient>
</defs>
</svg>
