<svg width="128" height="129" viewBox="0 0 128 129" fill="none" xmlns="http://www.w3.org/2000/svg">
<path d="M0 62.554L7.96778 46.6112L15.943 62.554H9.96351C9.96351 75.6493 15.532 87.9225 25.2711 96.9731C26.0783 97.7206 26.1232 98.9838 25.3757 99.791C24.6283 100.598 23.3651 100.643 22.5578 99.8957C12.0189 90.0967 5.9795 76.7774 5.9795 62.5529L0 62.554ZM97.0252 102.953C97.8324 103.7 97.8772 104.963 97.1298 105.771C87.3383 116.309 74.0192 122.349 59.7946 122.349V128.328L43.8443 120.361L59.7946 112.385V118.365C72.8822 118.365 85.1554 112.796 94.206 103.057C94.961 102.25 96.2179 102.205 97.0252 102.953ZM105 29.2027C115.539 39.0016 121.579 52.3209 121.579 66.5455H127.558L119.59 82.4883L111.615 66.5455H117.595C117.595 53.4502 112.026 41.177 102.287 32.1264C101.48 31.379 101.435 30.1158 102.182 29.3085C102.93 28.5012 104.193 28.4552 105 29.2027ZM65.7747 0.770752L81.7176 8.73854L65.7747 16.7138V10.7343C52.6795 10.7343 40.4063 16.3028 31.3557 26.0418C30.6082 26.8491 29.345 26.8939 28.5377 26.1465C27.7305 25.399 27.6856 24.1358 28.4331 23.3285C38.232 12.7897 51.5513 6.75025 65.7759 6.75025L65.7747 0.770752ZM65.7747 92.4516L57.7995 96.4429L53.8157 90.4634H47.8362L45.8404 84.4838L39.8609 82.4881V76.5086L33.8814 72.5248L37.8652 66.5453L33.8814 58.57L39.8609 54.5862V48.6067L45.8404 46.611L47.8362 40.6315H53.8157L57.7995 34.652L63.779 38.6358L71.7542 34.652L75.7381 40.6315H81.7176L83.7133 46.611L89.6928 48.6067V54.5862L95.6723 58.57L91.6811 64.5496L95.6723 72.5248L89.6928 76.5086V82.4881L83.7133 84.4838L81.7176 90.4634H75.7381L71.7542 96.4429L65.7747 92.4516ZM52.6049 61.2395C51.4762 60.1856 49.6899 60.2305 48.6136 61.3367C47.5373 62.4354 47.5821 64.1844 48.7108 65.2384L60.0045 75.7474C61.1556 76.8237 62.9868 76.749 64.0482 75.5979L80.9927 57.1959C82.0391 56.0673 81.942 54.3183 80.7834 53.3017C79.6249 52.2777 77.8384 52.3748 76.7922 53.5035L61.7986 69.7902L52.6049 61.2395Z" fill="#009491"/>
</svg>
