<svg width="128" height="124" viewBox="0 0 128 124" fill="none" xmlns="http://www.w3.org/2000/svg">
<path d="M40.3447 123.137L42.3655 123.939L55.7455 90.3551L53.7143 89.5531H53.7195C45.6831 86.3448 39.6102 79.5687 37.3035 71.2357C34.991 62.8972 36.7098 53.9597 41.9494 47.0744C47.1838 40.1889 55.3401 36.1473 63.9854 36.1473C72.6365 36.1473 80.7921 40.1889 86.0267 47.0744C91.2663 53.9599 92.9851 62.8971 90.6726 71.2357C88.3653 79.5691 82.2923 86.3451 74.2566 89.5531L72.2358 90.3656L85.7305 123.866L87.7513 123.063C102.111 117.241 113.855 106.391 120.798 92.5368C127.741 78.6822 129.402 62.7768 125.475 47.7875C121.543 32.7981 112.293 19.7568 99.4483 11.0901C86.5994 2.42348 71.0417 -1.26919 55.6723 0.699481C40.303 2.66828 26.1777 10.1683 15.9323 21.7928C5.68234 33.4179 0.0203361 48.3715 0.000336094 63.8661C-0.0413306 76.6631 3.79207 89.1728 10.9951 99.7515C18.193 110.33 28.4274 118.481 40.3447 123.137ZM63.8661 4.49172V4.48651C82.1781 4.42922 99.4914 12.8302 110.783 27.2412C122.075 41.6572 126.081 60.4758 121.643 78.2412C117.205 96.0012 104.82 110.725 88.0747 118.137L77.8403 92.6732C86.6321 88.4284 93.0123 80.4076 95.1737 70.8865C97.3299 61.3605 95.0383 51.3705 88.9341 43.7505C82.8299 36.1254 73.5901 31.6984 63.8247 31.7193C54.0594 31.7402 44.8354 36.2089 38.7674 43.86C32.6997 51.511 30.4445 61.5053 32.6477 71.0213C34.8507 80.5369 41.2674 88.5266 50.0797 92.7346L39.939 118.245C23.1323 110.902 10.6577 96.204 6.15766 78.4226C1.65246 60.6413 5.62641 41.7773 16.9129 27.3186C28.2046 12.86 45.5435 4.43331 63.8822 4.48531L63.8661 4.49172Z" fill="#009491"/>
</svg>
