<svg width="113" height="44" viewBox="0 0 113 44" fill="none" xmlns="http://www.w3.org/2000/svg">
<path d="M100.189 11.847H88.4687V18.093C85.5275 14.299 80.9138 11.847 75.7339 11.847H63.6989H63.2611H40.439V19.1978H48.3715V43.8015H55.7665V19.1978H63.2611V28.021H70.6562V19.1978H75.7339C80.518 19.1978 84.4108 23.0674 84.4108 27.8229C84.4108 32.5785 80.518 36.448 75.7339 36.448H70.6955V43.7989H75.7339C80.9138 43.7989 85.5275 41.3469 88.4687 37.5529V43.7989H95.8638V35.325H100.189C106.701 35.325 112.001 30.0587 112.001 23.5834C112.001 17.1132 106.701 11.847 100.189 11.847ZM100.189 27.9767H95.8638V19.1978H100.189C102.624 19.1978 104.604 21.1678 104.604 23.586C104.604 26.0067 102.622 27.9767 100.189 27.9767Z" fill="white"/>
<path d="M25.898 21.3137C23.7668 25.8139 22.7261 27.0464 21.0667 27.0464C19.5463 27.0464 18.4112 26.137 18.4112 25.324H11.0162C11.0162 30.3271 15.525 34.3999 21.0693 34.3999C27.8772 34.3999 30.6035 28.6464 32.5931 24.4459C33.799 21.9 35.1962 20.4043 37.157 19.7008V12.1258C32.1055 13.0065 28.4015 16.0292 25.898 21.3137Z" fill="white"/>
<path d="M40.4993 22.8563C39.1152 22.8563 37.9932 23.9716 37.9932 25.3475C37.9932 26.7233 39.1152 27.8386 40.4993 27.8386C41.8834 27.8386 43.0054 26.7233 43.0054 25.3475C43.0054 23.9742 41.8834 22.8563 40.4993 22.8563Z" fill="#404242"/>
<path d="M12.1486 9.01447C13.1369 7.57088 14.4109 6.33574 15.8763 5.39245C14.327 3.17754 11.6977 1.41604 8.15619 0.3138C6.82713 -0.100518 5.41156 0.636915 4.99737 1.95804C4.58319 3.27917 5.32243 4.68629 6.65149 5.098C8.45241 5.65824 11.2652 6.85429 12.1486 9.01447Z" fill="#C9DDDE"/>
<path d="M22.5347 5.49147C18.2356 5.49147 14.4397 8.26401 12.8302 12.1023C13.1081 12.2039 13.3833 12.3134 13.6559 12.4359C15.3677 13.2019 16.8069 14.3198 17.9184 15.6826C18.1779 13.1681 20.4716 11.3414 22.5373 11.3414C24.1626 11.3414 25.4786 10.0333 25.4786 8.41775C25.4786 6.80217 24.16 5.49147 22.5347 5.49147Z" fill="#89BCBC"/>
<path d="M9.90207 20.743C10.5181 21.0193 11.2521 21.5873 11.2521 22.7286H18.6471C18.6471 18.9425 16.4582 15.6123 12.9324 14.0384C9.07108 12.3134 4.48358 13.0482 1.24351 15.9093C-0.284785 17.2565 -0.42372 19.5809 0.934177 21.0974C2.28945 22.6166 4.62776 22.7521 6.15343 21.4049C7.45104 20.261 8.98457 20.3339 9.90207 20.743Z" fill="#009491"/>
</svg>
